<svg width="103" height="49" viewBox="0 0 103 49" fill="none" xmlns="http://www.w3.org/2000/svg">
<g clip-path="url(#clip0_1_121)">
<mask id="mask0_1_121" style="mask-type:luminance" maskUnits="userSpaceOnUse" x="0" y="0" width="103" height="49">
<path d="M103 0H0V49H103V0Z" fill="white"/>
</mask>
<g mask="url(#mask0_1_121)">
<mask id="mask1_1_121" style="mask-type:luminance" maskUnits="userSpaceOnUse" x="-8" y="-10" width="117" height="68">
<path d="M108.479 -9.15385H-7.67023V57.6154H108.479V-9.15385Z" fill="white"/>
</mask>
<g mask="url(#mask1_1_121)">
<path d="M58.9357 26.9626C58.9357 27.7498 58.7746 28.4441 58.4514 29.0456C58.1281 29.649 57.6948 30.1447 57.1502 30.5345C56.5053 31.0024 55.815 31.3328 55.077 31.5278C54.3394 31.7227 53.388 31.8211 52.221 31.8211H47.3032V16.0037H51.8502C53.0702 16.0037 53.9857 16.0408 54.5967 16.1151C55.2074 16.1893 55.792 16.3638 56.3519 16.6405C56.9666 16.9449 57.4148 17.3422 57.6986 17.8342C57.9824 18.3262 58.1243 18.9054 58.1243 19.57C58.1243 20.3126 57.9106 20.9772 57.4849 21.5658C57.0592 22.1524 56.4692 22.6128 55.718 22.9451V23.0305C56.7398 23.2849 57.532 23.7508 58.092 24.4285C58.6541 25.1061 58.9335 25.9508 58.9335 26.9645M55.7526 19.8652C55.7526 19.4828 55.6824 19.1523 55.546 18.8719C55.4079 18.5916 55.185 18.3707 54.8787 18.2073C54.5097 18.0161 54.0992 17.8992 53.6471 17.8565C53.1951 17.8138 52.569 17.7934 51.7708 17.7934H49.5824V22.4235H52.1737C52.8868 22.4235 53.4126 22.39 53.7512 22.3232C54.0898 22.2564 54.4378 22.1171 54.7993 21.9036C55.145 21.6976 55.3893 21.4283 55.5367 21.0961C55.6824 20.7637 55.7558 20.3535 55.7558 19.8634M56.5618 27.048C56.5618 26.4521 56.4692 25.9601 56.2856 25.574C56.1021 25.1878 55.7295 24.8592 55.168 24.59C54.8064 24.4136 54.4132 24.3004 53.9876 24.2503C53.5621 24.2001 52.9568 24.176 52.1737 24.176H49.5824V30.0314H51.4379C52.4366 30.0314 53.2235 29.9887 53.7985 29.9033C54.3735 29.8179 54.8803 29.6378 55.3192 29.3612C55.7487 29.0846 56.0643 28.7709 56.2648 28.4181C56.4653 28.0673 56.564 27.6105 56.564 27.0499" fill="black"/>
<path d="M61.2033 31.8193V16.0018H71.9433V17.8732H63.4808V22.2081H71.368V24.0795H63.4808V29.9479H71.9433V31.8193H61.2033Z" fill="black"/>
<path d="M79.2141 32.1033C77.9715 32.1033 76.9141 31.9845 76.0441 31.7487C75.1719 31.511 74.355 31.2196 73.5869 30.8724V28.2399H73.748C74.4986 28.8896 75.35 29.3946 76.3011 29.7511C77.2527 30.1075 78.1682 30.2858 79.0514 30.2858C80.3093 30.2858 81.2604 30.0444 81.9036 29.558C82.5485 29.0735 82.8701 28.4348 82.8701 27.6421C82.8701 27.0109 82.7019 26.4985 82.3633 26.1031C82.0269 25.7058 81.4894 25.4124 80.7536 25.2212C80.2238 25.0801 79.7401 24.9632 79.3029 24.8704C78.8662 24.7794 78.3172 24.655 77.6576 24.499C77.067 24.358 76.5378 24.1778 76.0688 23.9569C75.5992 23.7379 75.1851 23.4501 74.8257 23.0974C74.4723 22.7502 74.1978 22.3418 74.0033 21.8702C73.8066 21.4005 73.7096 20.8566 73.7096 20.2402C73.7096 18.9592 74.2509 17.8843 75.333 17.0173C76.4145 16.1503 77.7957 15.7159 79.4749 15.7159C80.4342 15.7159 81.3421 15.805 82.1967 15.9814C83.052 16.1596 83.8442 16.4102 84.5723 16.7351V19.2544H84.4003C83.8557 18.794 83.1577 18.3912 82.3068 18.0477C81.4555 17.7042 80.5624 17.5316 79.6267 17.5316C78.5693 17.5316 77.7124 17.7599 77.0615 18.2166C76.409 18.6733 76.0836 19.273 76.0836 20.0156C76.0836 20.6876 76.2748 21.2223 76.6588 21.6177C77.0429 22.0132 77.599 22.3046 78.3271 22.4884C78.8114 22.6091 79.4015 22.7446 80.0995 22.8969C80.7975 23.0491 81.3777 23.1884 81.8373 23.3165C83.0196 23.6487 83.882 24.1519 84.4271 24.8239C84.9717 25.496 85.244 26.324 85.244 27.3079C85.244 27.9243 85.1081 28.5332 84.8353 29.1347C84.563 29.7362 84.1811 30.2468 83.6913 30.6626C83.1391 31.123 82.5167 31.4777 81.8203 31.7245C81.1262 31.9733 80.2562 32.0959 79.2141 32.0959" fill="black"/>
<path d="M91.5807 31.8193V17.8732H85.8209V16.0018H99.6174V17.8732H93.8576V31.8193H91.5807Z" fill="black"/>
<path d="M38.75 31.8415L34.9727 29.7047H25.1107L21.3353 31.8415C24.948 38.0033 35.752 48.0934 47.4564 48.9659C43.3784 46.7233 36.8869 38.666 38.75 31.8415Z" fill="black"/>
<path d="M41.4151 0.0228615C41.4756 4.61214 37.6151 14.1564 30.6602 15.9851V20.2625L35.5932 28.6465L39.3666 30.7889C42.9963 24.6364 46.4974 10.41 41.4151 0.0228615Z" fill="black"/>
<path d="M29.4232 15.9851C22.1808 15.9758 7.8757 20.114 1.25369 29.6286C5.27305 27.282 15.625 25.7912 20.7149 30.7889L24.4884 28.6465L29.4195 20.2644V15.9851H29.4232Z" fill="black"/>
<path d="M27.7304 26.2051C27.7304 24.952 28.765 23.9384 30.0417 23.9384C31.3184 23.9384 32.3531 24.9539 32.3531 26.2051C32.3531 27.4564 31.3184 28.4738 30.0417 28.4738C28.765 28.4738 27.7304 27.462 27.7304 26.2051Z" fill="black"/>
<path d="M64.2627 42.0852C63.9504 42.0852 63.6622 42.0337 63.3992 41.9306C63.1379 41.8275 62.9122 41.674 62.7215 41.4699C62.5314 41.2659 62.3835 41.0114 62.2788 40.7065C62.1736 40.4014 62.1216 40.0513 62.1216 39.6558C62.1216 39.2625 62.172 38.9196 62.2722 38.6272C62.3752 38.3349 62.5237 38.0804 62.7188 37.8638C62.9089 37.6534 63.1346 37.4936 63.3959 37.3841C63.6567 37.2727 63.9493 37.217 64.272 37.217C64.4325 37.217 64.5826 37.2285 64.7218 37.2516C64.8631 37.2748 64.9935 37.3042 65.1135 37.34C65.216 37.3716 65.3212 37.4115 65.428 37.4599C65.537 37.5062 65.6439 37.5577 65.749 37.6145V38.3686H65.6975C65.6417 38.3181 65.5704 38.2571 65.4822 38.1855C65.3946 38.114 65.2877 38.0436 65.1617 37.9741C65.0395 37.9089 64.907 37.8553 64.7634 37.8133C64.6199 37.7712 64.4544 37.7501 64.266 37.7501C64.0627 37.7501 63.8698 37.7912 63.6879 37.8732C63.5061 37.9552 63.3466 38.0762 63.2097 38.2361C63.0749 38.3959 62.9702 38.5968 62.8952 38.8386C62.8201 39.0805 62.7829 39.3529 62.7829 39.6558C62.7829 39.9776 62.8223 40.2553 62.9018 40.4888C62.9806 40.7201 63.0886 40.9157 63.2255 41.0756C63.3587 41.2312 63.5148 41.349 63.6945 41.429C63.8742 41.5068 64.0649 41.5456 64.266 41.5456C64.45 41.5456 64.6199 41.5236 64.776 41.4794C64.9327 41.4353 65.0713 41.3795 65.1935 41.3122C65.3113 41.247 65.4132 41.1807 65.4987 41.1134C65.5841 41.044 65.6515 40.9851 65.7008 40.9368H65.749V41.6813C65.6439 41.7297 65.5447 41.776 65.4505 41.8202C65.3584 41.8643 65.2461 41.9074 65.1135 41.9495C64.9744 41.9937 64.8445 42.0274 64.7251 42.0505C64.6073 42.0736 64.4533 42.0852 64.2627 42.0852ZM69.113 42H66.3429V37.3021H66.9785V41.4447H69.113V42ZM71.2864 42.0978C71.0064 42.0978 70.761 42.062 70.5511 41.9905C70.3419 41.9169 70.1627 41.8086 70.0153 41.6656C69.8482 41.5015 69.7304 41.3059 69.6619 41.0788C69.5935 40.8495 69.5595 40.5676 69.5595 40.2332V37.3021H70.195V40.2332C70.195 40.4498 70.2087 40.6328 70.2367 40.7822C70.2646 40.9294 70.3194 41.0619 70.4005 41.1797C70.4859 41.3059 70.6015 41.4016 70.7473 41.4668C70.8947 41.532 71.0749 41.5646 71.2864 41.5646C71.4858 41.5646 71.6622 41.532 71.8162 41.4668C71.9701 41.4016 72.0901 41.3059 72.1756 41.1797C72.255 41.0598 72.3082 40.9273 72.3361 40.7822C72.3663 40.637 72.381 40.4593 72.381 40.2489V37.3021H73.0166V40.2332C73.0166 40.5592 72.9826 40.839 72.9141 41.0724C72.8478 41.3059 72.73 41.5036 72.5607 41.6656C72.409 41.8107 72.2315 41.919 72.0282 41.9905C71.8271 42.062 71.5795 42.0978 71.2864 42.0978ZM75.7324 40.779C75.7324 41.1912 75.6042 41.5089 75.3472 41.7319C75.0925 41.9548 74.7506 42.0662 74.32 42.0662C74.2175 42.0662 74.0794 42.0568 73.9058 42.0379C73.7348 42.0211 73.5913 42 73.4757 41.9748V41.3785H73.5113C73.599 41.4079 73.7069 41.4405 73.8356 41.4762C73.966 41.5121 74.0986 41.5299 74.2334 41.5299C74.4306 41.5299 74.5868 41.5078 74.7024 41.4636C74.8196 41.4195 74.9067 41.3564 74.9621 41.2743C75.0201 41.1902 75.0563 41.0872 75.0711 40.9651C75.0886 40.8432 75.0968 40.7022 75.0968 40.5424V37.8007H74.086V37.3021H75.7324V40.779ZM78.2882 40.23H76.4775V39.6589H78.2882V40.23ZM82.4805 42H81.7677L79.6557 37.9489V42H79.0618V37.3021H79.9636L81.8866 41.0219V37.3021H82.4805V42ZM82.9363 42L84.5476 37.3021H85.3311L86.9424 42H86.2718L85.8384 40.6875H84.0118L83.5785 42H82.9363ZM85.662 40.1543L84.9235 37.9395L84.1882 40.1543H85.662ZM90.4126 38.7187C90.4126 38.9228 90.3754 39.1163 90.3003 39.2993C90.228 39.4802 90.1261 39.6348 89.9957 39.7631C89.8308 39.9229 89.6368 40.0439 89.4144 40.1259C89.192 40.208 88.9104 40.2489 88.5701 40.2489H88.031V42H87.3955V37.3021H88.5959C88.8786 37.3021 89.1191 37.3253 89.318 37.3715C89.5174 37.4178 89.6927 37.4925 89.8445 37.5955C90.022 37.7155 90.1611 37.868 90.2619 38.053C90.3628 38.2361 90.4126 38.4579 90.4126 38.7187ZM89.7513 38.7345C89.7513 38.5726 89.7228 38.4316 89.6648 38.3118C89.6094 38.1918 89.5234 38.0941 89.4078 38.0184C89.3076 37.9531 89.1898 37.9068 89.055 37.8795C88.9224 37.8522 88.7564 37.8385 88.5575 37.8385H88.031V39.7157H88.4644C88.7213 39.7157 88.9284 39.6958 89.0868 39.6558C89.2456 39.6138 89.3771 39.5401 89.4818 39.4349C89.576 39.3403 89.6445 39.2372 89.6872 39.1258C89.73 39.0143 89.7513 38.8839 89.7513 38.7345ZM94.4033 37.8416C94.5852 38.0478 94.726 38.3034 94.8268 38.6083C94.9276 38.9133 94.9775 39.2614 94.9775 39.6526C94.9775 40.0334 94.9287 40.3772 94.8301 40.6843C94.7315 40.9915 94.5891 41.2491 94.4033 41.4573C94.2083 41.6761 93.9804 41.838 93.7196 41.9432C93.4604 42.0463 93.1744 42.0978 92.8622 42.0978C92.5389 42.0978 92.248 42.0442 91.9888 41.9369C91.7302 41.8296 91.5073 41.6698 91.3215 41.4573C91.1375 41.2491 90.9961 40.9925 90.8975 40.6875C90.7989 40.3825 90.7501 40.0376 90.7501 39.6526C90.7501 39.2572 90.7989 38.9102 90.8975 38.6115C90.9983 38.3128 91.1407 38.0562 91.3243 37.8416C91.5084 37.6334 91.7302 37.4757 91.9888 37.3684C92.2502 37.259 92.5411 37.2044 92.8622 37.2044C93.1876 37.2044 93.4807 37.2601 93.742 37.3715C94.0028 37.483 94.2231 37.6397 94.4033 37.8416ZM94.3162 39.6526C94.3162 39.3414 94.2822 39.0658 94.2138 38.826C94.1453 38.5863 94.0488 38.3875 93.925 38.2297C93.7985 38.0678 93.6456 37.9468 93.4659 37.8669C93.2879 37.7849 93.0879 37.7438 92.8654 37.7438C92.6342 37.7438 92.4321 37.7838 92.2589 37.8638C92.0875 37.9416 91.9357 38.0636 91.8026 38.2297C91.6766 38.3896 91.579 38.5905 91.5106 38.8323C91.4443 39.0742 91.4114 39.3477 91.4114 39.6526C91.4114 40.269 91.5429 40.7411 91.8059 41.0693C92.0694 41.3953 92.4222 41.5583 92.8654 41.5583C93.3087 41.5583 93.6604 41.3953 93.9217 41.0693C94.1847 40.7411 94.3162 40.269 94.3162 39.6526ZM97.5459 42.0852C97.2336 42.0852 96.9454 42.0337 96.6825 41.9306C96.4211 41.8275 96.1954 41.674 96.0047 41.4699C95.8146 41.2659 95.6667 41.0114 95.5621 40.7065C95.4569 40.4014 95.4048 40.0513 95.4048 39.6558C95.4048 39.2625 95.4552 38.9196 95.5555 38.6272C95.6585 38.3349 95.807 38.0804 96.002 37.8638C96.1921 37.6534 96.4178 37.4936 96.6792 37.3841C96.94 37.2727 97.2325 37.217 97.5552 37.217C97.7158 37.217 97.8659 37.2285 98.005 37.2516C98.1464 37.2748 98.2768 37.3042 98.3968 37.34C98.4992 37.3716 98.6044 37.4115 98.7112 37.4599C98.8203 37.5062 98.9271 37.5577 99.0323 37.6145V38.3686H98.9808C98.9249 38.3181 98.8537 38.2571 98.7655 38.1855C98.6778 38.114 98.571 38.0436 98.445 37.9741C98.3228 37.9089 98.1902 37.8553 98.0467 37.8133C97.9031 37.7712 97.7377 37.7501 97.5492 37.7501C97.3459 37.7501 97.1531 37.7912 96.9712 37.8732C96.7893 37.9552 96.6299 38.0762 96.4929 38.2361C96.3581 38.3959 96.2535 38.5968 96.1784 38.8386C96.1034 39.0805 96.0661 39.3529 96.0661 39.6558C96.0661 39.9776 96.1056 40.2553 96.185 40.4888C96.2639 40.7201 96.3718 40.9157 96.5088 41.0756C96.6419 41.2312 96.7981 41.349 96.9778 41.429C97.1575 41.5068 97.3481 41.5456 97.5492 41.5456C97.7333 41.5456 97.9031 41.5236 98.0593 41.4794C98.216 41.4353 98.3546 41.3795 98.4767 41.3122C98.5945 41.247 98.6964 41.1807 98.7819 41.1134C98.8674 41.044 98.9348 40.9851 98.9841 40.9368H99.0323V41.6813C98.9271 41.7297 98.8279 41.776 98.7337 41.8202C98.6417 41.8643 98.5293 41.9074 98.3968 41.9495C98.2576 41.9937 98.1278 42.0274 98.0083 42.0505C97.8905 42.0736 97.7366 42.0852 97.5459 42.0852ZM99.109 42L100.721 37.3021H101.504L103.116 42H102.444L102.011 40.6875H100.184L99.7511 42H99.109ZM101.835 40.1543L101.096 37.9395L100.361 40.1543H101.835Z" fill="black"/>
</g>
</g>
</g>
<defs>
<clipPath id="clip0_1_121">
<rect width="103" height="49" fill="white"/>
</clipPath>
</defs>
</svg>
