<svg width="1440" height="150" viewBox="0 0 1440 150" fill="none" xmlns="http://www.w3.org/2000/svg">
<path d="M0 120H30V150H0V120Z" fill="#0125DC"/>
<path d="M30 120H60V150H30V120Z" fill="#0125DC"/>
<path d="M90 120H120V150H90V120Z" fill="#0125DC"/>
<path d="M120 120H150V150H120V120Z" fill="#0125DC"/>
<path d="M60 90H90V120H60V90Z" fill="#0125DC"/>
<path d="M30 60H60V90H30V60Z" fill="#0125DC"/>
<path d="M480 91H510V121H480V91Z" fill="#0125DC"/>
<path d="M30 30H60V60H30V30Z" fill="#0125DC"/>
<path d="M480 61H510V91H480V61Z" fill="#0125DC"/>
<path d="M0 0H30V30H0V0Z" fill="#0125DC"/>
<path d="M60 0H90V30H60V0Z" fill="#0125DC"/>
<path d="M510 31H540V61H510V31Z" fill="#0125DC"/>
<path d="M90 51H120V81H90V51Z" fill="#0125DC"/>
<path d="M540 80H570V110H540V80Z" fill="#0125DC"/>
<path d="M135 90H165V120H135V90Z" fill="#0125DC"/>
<path d="M165 62H195V92H165V62Z" fill="#0125DC"/>
<path d="M615 91H645V121H615V91Z" fill="#0125DC"/>
<path d="M330 90H360V120H330V90Z" fill="#0125DC"/>
<path d="M330 60H360V90H330V60Z" fill="#0125DC"/>
<path d="M780 90H810V120H780V90Z" fill="#0125DC"/>
<path d="M300 30H330V60H300V30Z" fill="#0125DC"/>
<path d="M750 61H780V91H750V61Z" fill="#0125DC"/>
<path d="M270 60H300V90H270V60Z" fill="#0125DC"/>
<path d="M720 91H750V121H720V91Z" fill="#0125DC"/>
<path d="M240 90H270V120H240V90Z" fill="#0125DC"/>
<path d="M210 60H240V90H210V60Z" fill="#0125DC"/>
<path d="M660 90H690V120H660V90Z" fill="#0125DC"/>
<path d="M135 32H165V62H135V32Z" fill="#0125DC"/>
<path d="M585 61H615V91H585V61Z" fill="#0125DC"/>
<path d="M0 90H30V120H0V90Z" fill="#0125DC"/>
<path d="M150 120H180V150H150V120Z" fill="#0125DC"/>
<path d="M180 120H210V150H180V120Z" fill="#0125DC"/>
<path d="M240 120H270V150H240V120Z" fill="#0125DC"/>
<path d="M300 120H330V150H300V120Z" fill="#0125DC"/>
<path d="M330 120H360V150H330V120Z" fill="#0125DC"/>
<path d="M390 120H420V150H390V120Z" fill="#0125DC"/>
<path d="M420 120H450V150H420V120Z" fill="#0125DC"/>
<path d="M450 120H480V150H450V120Z" fill="#0125DC"/>
<path d="M510 120H540V150H510V120Z" fill="#0125DC"/>
<path d="M540 120H570V150H540V120Z" fill="#0125DC"/>
<path d="M570 120H600V150H570V120Z" fill="#0125DC"/>
<path d="M600 120H630V150H600V120Z" fill="#0125DC"/>
<path d="M630 120H660V150H630V120Z" fill="#0125DC"/>
<path d="M660 120H690V150H660V120Z" fill="#0125DC"/>
<path d="M720 120H750V150H720V120Z" fill="#0125DC"/>
<path d="M750 120H780V150H750V120Z" fill="#0125DC"/>
<path d="M810 120H840V150H810V120Z" fill="#0125DC"/>
<path d="M840 120H870V150H840V120Z" fill="#0125DC"/>
<path d="M870 120H900V150H870V120Z" fill="#0125DC"/>
<path d="M900 120H930V150H900V120Z" fill="#0125DC"/>
<path d="M930 120H960V150H930V120Z" fill="#0125DC"/>
<path d="M960 120H990V150H960V120Z" fill="#0125DC"/>
<path d="M990 120H1020V150H990V120Z" fill="#0125DC"/>
<path d="M1020 120H1050V150H1020V120Z" fill="#0125DC"/>
<path d="M1050 120H1080V150H1050V120Z" fill="#0125DC"/>
<path d="M1110 120H1140V150H1110V120Z" fill="#0125DC"/>
<path d="M1140 120H1170V150H1140V120Z" fill="#0125DC"/>
<path d="M1200 120H1230V150H1200V120Z" fill="#0125DC"/>
<path d="M1230 120H1260V150H1230V120Z" fill="#0125DC"/>
<path d="M1260 120H1290V150H1260V120Z" fill="#0125DC"/>
<path d="M1200 90H1230V120H1200V90Z" fill="#0125DC"/>
<path d="M870 90H900V120H870V90Z" fill="#0125DC"/>
<path d="M1200 60H1230V90H1200V60Z" fill="#0125DC"/>
<path d="M870 60H900V90H870V60Z" fill="#0125DC"/>
<path d="M1260 90H1290V120H1260V90Z" fill="#0125DC"/>
<path d="M930 90H960V120H930V90Z" fill="#0125DC"/>
<path d="M1230 60H1260V90H1230V60Z" fill="#0125DC"/>
<path d="M900 60H930V90H900V60Z" fill="#0125DC"/>
<path d="M1290 60H1320V90H1290V60Z" fill="#0125DC"/>
<path d="M960 60H990V90H960V60Z" fill="#0125DC"/>
<path d="M1350 90H1380V120H1350V90Z" fill="#0125DC"/>
<path d="M1020 90H1050V120H1020V90Z" fill="#0125DC"/>
<path d="M1380 60H1410V90H1380V60Z" fill="#0125DC"/>
<path d="M1050 60H1080V90H1050V60Z" fill="#0125DC"/>
<path d="M1410 90H1440V120H1410V90Z" fill="#0125DC"/>
<path d="M1080 90H1110V120H1080V90Z" fill="#0125DC"/>
<path d="M1380 30H1410V60H1380V30Z" fill="#0125DC"/>
<path d="M1050 30H1080V60H1050V30Z" fill="#0125DC"/>
<path d="M1170 31H1200V61H1170V31Z" fill="#0125DC"/>
<path d="M1125 50H1155V80H1125V50Z" fill="#0125DC"/>
<path d="M1290 30H1320V60H1290V30Z" fill="#0125DC"/>
<path d="M960 30H990V60H960V30Z" fill="#0125DC"/>
<path d="M1290 120H1320V150H1290V120Z" fill="#0125DC"/>
<path d="M1320 120H1350V150H1320V120Z" fill="#0125DC"/>
<path d="M1380 120H1410V150H1380V120Z" fill="#0125DC"/>
<path d="M1410 120H1440V150H1410V120Z" fill="#0125DC"/>
<path d="M1440 120H1470V150H1440V120Z" fill="#0125DC"/>
</svg>
