<svg width="1440" height="400" viewBox="0 0 1440 400" fill="none" xmlns="http://www.w3.org/2000/svg">
<rect x="0.3" y="100.3" width="99.4" height="99.4" stroke="#0125DC" stroke-opacity="0.1" stroke-width="0.6"/>
<rect x="100.3" y="100.3" width="99.4" height="99.4" stroke="#0125DC" stroke-opacity="0.1" stroke-width="0.6"/>
<rect x="400.3" y="100.3" width="99.4" height="99.4" stroke="#0125DC" stroke-opacity="0.1" stroke-width="0.6"/>
<rect x="500.3" y="100.3" width="99.4" height="99.4" stroke="#0125DC" stroke-opacity="0.1" stroke-width="0.6"/>
<rect x="800.3" y="100.3" width="99.4" height="99.4" stroke="#0125DC" stroke-opacity="0.1" stroke-width="0.6"/>
<rect x="1100.3" y="100.3" width="99.4" height="99.4" stroke="#0125DC" stroke-opacity="0.1" stroke-width="0.6"/>
<rect x="1200.3" y="100.3" width="99.4" height="99.4" stroke="#0125DC" stroke-opacity="0.1" stroke-width="0.6"/>
<rect x="1300.3" y="100.3" width="99.4" height="99.4" stroke="#0125DC" stroke-opacity="0.1" stroke-width="0.6"/>
<rect x="1400.3" y="100.3" width="99.4" height="99.4" stroke="#0125DC" stroke-opacity="0.1" stroke-width="0.6"/>
<rect x="0.3" y="300.3" width="99.4" height="99.4" stroke="#0125DC" stroke-opacity="0.1" stroke-width="0.6"/>
<rect x="100.3" y="300.3" width="99.4" height="99.4" stroke="#0125DC" stroke-opacity="0.1" stroke-width="0.6"/>
<rect x="400.3" y="300.3" width="99.4" height="99.4" stroke="#0125DC" stroke-opacity="0.1" stroke-width="0.6"/>
<rect x="300.3" y="300.3" width="99.4" height="99.4" stroke="#0125DC" stroke-opacity="0.1" stroke-width="0.6"/>
<rect x="700.3" y="300.3" width="99.4" height="99.4" stroke="#0125DC" stroke-opacity="0.1" stroke-width="0.6"/>
<rect x="800.3" y="300.3" width="99.4" height="99.4" stroke="#0125DC" stroke-opacity="0.1" stroke-width="0.6"/>
<rect x="1100.3" y="300.3" width="99.4" height="99.4" stroke="#0125DC" stroke-opacity="0.1" stroke-width="0.6"/>
<rect x="1200.3" y="300.3" width="99.4" height="99.4" stroke="#0125DC" stroke-opacity="0.1" stroke-width="0.6"/>
<rect x="1300.3" y="300.3" width="99.4" height="99.4" stroke="#0125DC" stroke-opacity="0.1" stroke-width="0.6"/>
<rect x="1400.3" y="300.3" width="99.4" height="99.4" stroke="#0125DC" stroke-opacity="0.1" stroke-width="0.6"/>
<rect x="0.3" y="0.3" width="99.4" height="99.4" stroke="#0125DC" stroke-opacity="0.1" stroke-width="0.6"/>
<rect x="200.3" y="0.3" width="99.4" height="99.4" stroke="#0125DC" stroke-opacity="0.1" stroke-width="0.6"/>
<rect x="300" width="100" height="100" fill="#F2F4FF"/>
<rect x="300.3" y="0.3" width="99.4" height="99.4" stroke="#0125DC" stroke-opacity="0.1" stroke-width="0.6"/>
<rect x="400.3" y="0.3" width="99.4" height="99.4" stroke="#0125DC" stroke-opacity="0.1" stroke-width="0.6"/>
<rect x="500.3" y="0.3" width="99.4" height="99.4" stroke="#0125DC" stroke-opacity="0.1" stroke-width="0.6"/>
<rect x="600.3" y="0.3" width="99.4" height="99.4" stroke="#0125DC" stroke-opacity="0.1" stroke-width="0.6"/>
<rect x="700.3" y="0.3" width="99.4" height="99.4" stroke="#0125DC" stroke-opacity="0.1" stroke-width="0.6"/>
<rect x="800.3" y="0.3" width="99.4" height="99.4" stroke="#0125DC" stroke-opacity="0.1" stroke-width="0.6"/>
<rect x="900.3" y="0.3" width="99.4" height="99.4" stroke="#0125DC" stroke-opacity="0.1" stroke-width="0.6"/>
<rect x="1400.3" y="0.3" width="99.4" height="99.4" stroke="#0125DC" stroke-opacity="0.1" stroke-width="0.6"/>
</svg>
