<svg width="1141" height="634" viewBox="0 0 1141 634" fill="none" xmlns="http://www.w3.org/2000/svg">
<rect x="0.3" y="127.077" width="126.178" height="126.178" stroke="#FF6200" stroke-opacity="0.3" stroke-width="0.6"/>
<rect x="0.3" y="380.632" width="126.178" height="126.178" stroke="#FF6200" stroke-opacity="0.3" stroke-width="0.6"/>
<rect x="0.3" y="507.411" width="126.178" height="126.178" stroke="#FF6200" stroke-opacity="0.3" stroke-width="0.6"/>
<rect x="127.077" y="127.077" width="126.178" height="126.178" stroke="#FF6200" stroke-opacity="0.3" stroke-width="0.6"/>
<rect x="127.077" y="380.632" width="126.178" height="126.178" stroke="#FF6200" stroke-opacity="0.3" stroke-width="0.6"/>
<rect x="253.854" y="0.3" width="126.178" height="126.178" stroke="#FF6200" stroke-opacity="0.3" stroke-width="0.6"/>
<rect x="253.854" y="127.077" width="126.178" height="126.178" stroke="#FF6200" stroke-opacity="0.3" stroke-width="0.6"/>
<rect x="253.856" y="507.411" width="126.178" height="126.178" stroke="#FF6200" stroke-opacity="0.3" stroke-width="0.6"/>
<rect x="380.633" y="0.3" width="126.178" height="126.178" stroke="#FF6200" stroke-opacity="0.3" stroke-width="0.6"/>
<rect x="380.633" y="127.077" width="126.178" height="126.178" stroke="#FF6200" stroke-opacity="0.3" stroke-width="0.6"/>
<rect x="380.633" y="380.632" width="126.178" height="126.178" stroke="#FF6200" stroke-opacity="0.3" stroke-width="0.6"/>
<rect x="507.41" y="0.3" width="126.178" height="126.178" stroke="#FF6200" stroke-opacity="0.3" stroke-width="0.6"/>
<rect x="507.41" y="127.078" width="126.178" height="126.178" stroke="#FF6200" stroke-opacity="0.3" stroke-width="0.6"/>
<rect x="634.189" y="127.078" width="126.178" height="126.178" stroke="#FF6200" stroke-opacity="0.3" stroke-width="0.6"/>
<rect x="634.189" y="380.633" width="126.178" height="126.178" stroke="#FF6200" stroke-opacity="0.3" stroke-width="0.6"/>
<rect x="760.967" y="0.3" width="126.178" height="126.178" stroke="#FF6200" stroke-opacity="0.3" stroke-width="0.6"/>
<rect x="760.967" y="253.855" width="126.178" height="126.178" stroke="#FF6200" stroke-opacity="0.3" stroke-width="0.6"/>
<rect x="760.967" y="380.633" width="126.178" height="126.178" stroke="#FF6200" stroke-opacity="0.3" stroke-width="0.6"/>
<rect x="760.967" y="507.411" width="126.178" height="126.178" stroke="#FF6200" stroke-opacity="0.3" stroke-width="0.6"/>
<rect x="887.743" y="253.855" width="126.178" height="126.178" stroke="#FF6200" stroke-opacity="0.3" stroke-width="0.6"/>
<rect x="887.743" y="380.633" width="126.178" height="126.178" stroke="#FF6200" stroke-opacity="0.3" stroke-width="0.6"/>
<rect x="1014.52" y="0.3" width="126.178" height="126.178" stroke="#FF6200" stroke-opacity="0.3" stroke-width="0.6"/>
<rect x="1014.52" y="253.855" width="126.178" height="126.178" stroke="#FF6200" stroke-opacity="0.3" stroke-width="0.6"/>
<rect x="1014.52" y="380.633" width="126.178" height="126.178" stroke="#FF6200" stroke-opacity="0.3" stroke-width="0.6"/>
<rect x="1014.52" y="507.411" width="126.178" height="126.178" stroke="#FF6200" stroke-opacity="0.3" stroke-width="0.6"/>
</svg>
