<svg width="136" height="33" viewBox="0 0 136 33" fill="none" xmlns="http://www.w3.org/2000/svg">
<path fill-rule="evenodd" clip-rule="evenodd" d="M130.681 0.0180536C133.629 -0.219644 135.864 1.91964 135.864 4.67693C135.864 7.48177 133.772 9.47843 131.109 9.47843C128.351 9.47843 126.211 7.38669 126.353 4.48678C126.449 2.39503 127.59 1.159 128.969 0.44591C129.492 0.160672 129.825 0.0655931 130.681 0.0180536ZM127.78 3.01305C126.116 6.34082 129.825 9.57351 132.773 8.00471C133.724 7.52931 134.58 6.48344 134.771 5.24741C135.104 2.58519 133.059 0.683608 130.633 1.01639C129.112 1.25408 128.161 2.34749 127.78 3.01305Z" fill="black"/>
<path fill-rule="evenodd" clip-rule="evenodd" d="M131.965 4.91458C132.488 5.62768 133.154 6.24569 133.629 7.00632C133.059 6.91125 132.631 7.1014 132.298 7.00632C131.584 6.81617 131.442 5.24736 130.491 5.2949C130.396 5.7703 130.491 6.48339 130.443 7.00632C130.063 7.00632 129.682 7.00632 129.302 7.00632C129.302 5.43752 129.302 3.82117 129.302 2.25237C130.443 2.2999 132.298 2.06221 132.821 2.82284C133.249 3.48839 132.868 4.77196 131.965 4.91458ZM130.443 4.39165C132.06 4.77196 132.155 2.68022 130.443 3.10808C130.443 3.53594 130.443 3.96379 130.443 4.39165Z" fill="black"/>
<path fill-rule="evenodd" clip-rule="evenodd" d="M35.5233 3.39333C37.2353 3.39333 38.9473 3.39333 40.6117 3.39333C40.6117 6.05554 40.6117 8.71776 40.6117 11.38C41.9433 10.4292 43.2272 9.28824 45.5574 9.2407C48.3632 9.2407 49.8849 10.7144 50.7885 12.9012C51.6445 14.8979 51.9298 18.0831 51.3116 20.6502C50.7885 22.8846 49.4094 24.8337 47.6023 25.832C45.7001 26.8779 42.4664 26.7828 40.6117 25.4042C40.4691 25.5943 40.4691 26.0222 40.3264 26.2123C38.7095 26.2123 37.0451 26.2123 35.4282 26.2123C35.4282 18.6535 35.4282 11.0472 35.4282 3.48841C35.4758 3.44087 35.4758 3.39333 35.5233 3.39333ZM44.7966 22.2665C46.461 21.1256 47.0316 16.5143 45.7477 14.4701C44.749 12.9012 41.8006 13.0914 40.6593 14.2799C40.6593 16.9897 40.6593 19.7469 40.6593 22.4567C42.181 22.9321 43.7979 22.9321 44.7966 22.2665Z" fill="black"/>
<path fill-rule="evenodd" clip-rule="evenodd" d="M73.6626 3.39333C75.3746 3.39333 77.0866 3.39333 78.751 3.39333C78.751 6.05554 78.751 8.7653 78.751 11.4275C78.9412 11.5226 79.1314 11.1898 79.3217 11.0472C79.8923 10.6193 80.6532 10.0964 81.4141 9.76363C83.4114 8.90792 86.122 9.2407 87.4536 10.5243C89.0704 12.0455 89.0704 14.5651 89.0704 17.6077C89.0704 20.5076 89.0704 23.455 89.0704 26.2599C87.3585 26.2599 85.5989 26.2599 83.8869 26.2599C83.8869 24.5484 83.8869 22.3616 83.8869 20.1273C83.8869 17.7503 84.2198 14.47 82.7456 13.757C81.5092 13.1389 79.5594 13.8045 78.7986 14.5651C78.7986 18.4634 78.7986 22.3141 78.7986 26.2123C77.0866 26.2123 75.3746 26.2123 73.6626 26.2123C73.6626 18.6535 73.6626 11.0472 73.6626 3.48841C73.6151 3.44087 73.6151 3.39333 73.6626 3.39333Z" fill="black"/>
<path fill-rule="evenodd" clip-rule="evenodd" d="M70.2385 5.38998C70.1909 7.05386 70.286 8.86037 70.1909 10.4292C69.5727 10.4767 69.0972 9.90624 68.6216 9.621C66.767 8.48005 63.1052 7.1014 60.5373 8.52759C59.8715 8.86037 59.2057 9.621 59.4911 10.7144C59.8715 12.2832 62.9626 12.5209 64.6745 12.9488C66.5767 13.4242 68.5741 14.2323 69.6678 15.3733C71.0469 16.7995 71.4749 19.4142 70.7616 21.601C69.4776 25.4992 65.1501 27.068 59.9191 26.6402C57.4937 26.45 55.4964 25.832 53.5942 25.0238C53.6418 23.3124 53.5467 21.4584 53.6418 19.842C54.3551 19.842 54.8782 20.4125 55.4013 20.7453C57.3035 21.9813 60.9653 23.5026 63.9137 22.3141C64.7697 21.9813 65.7683 21.1256 65.2928 19.7945C64.7221 18.1306 61.203 17.8929 59.3959 17.37C56.2098 16.4667 53.3089 14.8028 53.6418 10.239C53.7369 8.71775 54.3551 7.71942 55.0684 6.8637C56.4475 5.2949 58.9204 4.15395 61.7737 3.96379C65.2452 3.77363 67.8607 4.48673 70.2385 5.38998Z" fill="black"/>
<path fill-rule="evenodd" clip-rule="evenodd" d="M2.52041 4.34418C5.99193 4.34418 9.511 4.34418 12.9825 4.34418C12.9825 7.05393 12.9825 9.76369 12.9825 12.4259C12.9825 16.4192 13.5532 21.506 11.8412 23.8354C9.70121 26.6878 4.80305 27.1156 0 26.1649C0 24.6911 0 23.2174 0 21.7437C0.76088 21.6486 1.28398 22.0764 2.04486 22.2666C3.8044 22.742 6.08704 22.4568 6.89547 21.3158C7.79902 20.0322 7.51369 17.3225 7.51369 15.1357C7.51369 12.8538 7.51369 10.4768 7.51369 8.38504C5.94437 8.28996 4.13728 8.38504 2.52041 8.3375C2.52041 7.05394 2.52041 5.77036 2.52041 4.4868C2.4253 4.39172 2.4253 4.34418 2.52041 4.34418Z" fill="black"/>
<path fill-rule="evenodd" clip-rule="evenodd" d="M23.4446 9.24071C27.7721 8.95548 30.5303 10.762 31.8143 13.3767C33.669 17.0847 32.7179 22.0764 30.5779 24.3583C28.2477 26.8304 23.302 27.6385 19.7829 25.7845C16.8345 24.2632 15.075 20.6502 15.8358 15.8487C16.1687 13.757 16.9772 12.3308 18.2611 11.1898C19.5451 10.0489 21.2571 9.38333 23.4446 9.24071ZM22.6838 13.234C20.5438 14.4225 20.3536 20.7453 22.3033 22.4092C23.3971 23.3124 25.3944 23.1698 26.2979 22.3141C27.1539 21.5059 27.4868 19.747 27.4868 18.0355C27.4868 15.2307 26.7259 12.616 23.8251 12.9488C23.302 12.9963 23.0166 13.0439 22.6838 13.234Z" fill="black"/>
<path fill-rule="evenodd" clip-rule="evenodd" d="M99.4372 9.24072C105.049 8.8604 108.52 11.9505 108.71 17.2274C108.948 23.0747 106.238 26.355 100.911 26.7353C95.2524 27.1156 91.9711 24.0255 91.6858 18.7962C91.4955 16.0389 92.2089 13.6144 93.4453 11.998C94.7293 10.3817 96.8217 9.43088 99.4372 9.24072ZM98.6288 13.234C96.4413 14.4701 96.251 21.2207 98.4861 22.6469C99.5799 23.36 101.244 23.1223 102.053 22.5043C103.147 21.6486 103.432 19.6044 103.384 17.6552C103.337 14.8979 102.528 12.6636 99.7701 12.9963C99.247 12.9963 98.9617 13.0914 98.6288 13.234Z" fill="black"/>
<path fill-rule="evenodd" clip-rule="evenodd" d="M116.605 25.4992C116.605 27.7811 116.605 30.063 116.605 32.3449C114.893 32.3449 113.133 32.3449 111.421 32.3449C111.421 24.8337 111.421 17.2749 111.421 9.76364C113.133 9.76364 114.893 9.76364 116.605 9.76364C116.605 10.2866 116.605 10.8095 116.605 11.3324C117.936 10.4292 119.125 9.43086 121.313 9.2407C126.639 8.81284 128.494 15.3258 127.352 20.5551C126.829 22.837 125.45 24.7861 123.643 25.7845C121.741 26.8779 118.745 26.8304 116.605 25.4992ZM121.123 21.9813C122.597 20.6027 122.835 16.0389 121.598 14.3274C121.123 13.6619 120.171 13.234 118.983 13.3291C118.317 13.3766 116.795 13.757 116.605 14.2799C116.415 14.7553 116.605 15.6585 116.605 16.3241C116.605 18.4634 116.605 20.46 116.605 22.5042C118.364 23.0272 120.124 22.8846 121.123 21.9813Z" fill="black"/>
</svg>
