<svg width="161" height="46" viewBox="0 0 161 46" fill="none" xmlns="http://www.w3.org/2000/svg">
<g clip-path="url(#clip0_1_60)">
<path fill-rule="evenodd" clip-rule="evenodd" d="M154.85 0.0299927C158.35 -0.310007 161 2.71999 161 6.62999C161 10.54 158.52 13.43 155.36 13.43C152.2 13.43 149.55 10.47 149.72 6.35999C149.83 3.39999 151.19 1.63999 152.82 0.629995C153.44 0.229995 153.84 0.0899944 154.85 0.0199944V0.0299927ZM151.4 4.26999C149.42 8.98999 153.83 13.57 157.33 11.34C158.46 10.67 159.47 9.17999 159.7 7.42999C160.1 3.65999 157.67 0.959994 154.79 1.42999C152.98 1.76999 151.86 3.32 151.4 4.26V4.26999Z" fill="white"/>
<path fill-rule="evenodd" clip-rule="evenodd" d="M156.37 6.95999C156.99 7.96999 157.78 8.84999 158.35 9.91999C157.67 9.78999 157.16 10.05 156.77 9.91999C155.92 9.64999 155.75 7.42999 154.63 7.48999C154.52 8.15999 154.63 9.16999 154.57 9.91999H153.22V3.17999C154.57 3.24999 156.78 2.90999 157.4 3.98999C157.91 4.92999 157.46 6.74999 156.38 6.94999L156.37 6.95999ZM154.57 6.21999C156.49 6.75999 156.6 3.78999 154.57 4.39999V6.21999Z" fill="white"/>
<path fill-rule="evenodd" clip-rule="evenodd" d="M41.91 4.81H47.95V16.13C49.53 14.78 51.05 13.17 53.82 13.1C57.15 13.1 58.96 15.19 60.03 18.29C61.05 21.12 61.38 25.63 60.65 29.27C60.03 32.44 58.39 35.2 56.25 36.61C53.99 38.09 50.15 37.96 47.95 36C47.78 36.27 47.78 36.88 47.61 37.15H41.8V4.95C41.86 4.88 41.86 4.82 41.91 4.82V4.81ZM52.91 31.56C54.89 29.94 55.56 23.41 54.04 20.51C52.85 18.29 49.36 18.56 48 20.24V31.83C49.81 32.5 51.73 32.5 52.91 31.56Z" fill="white"/>
<path fill-rule="evenodd" clip-rule="evenodd" d="M87.17 4.81H93.21V16.2C93.44 16.33 93.66 15.86 93.89 15.66C94.57 15.05 95.47 14.31 96.37 13.84C98.74 12.63 101.96 13.1 103.54 14.92C105.46 17.08 105.46 20.65 105.46 24.96V37.22H99.31V28.53C99.31 25.16 99.71 20.51 97.96 19.5C96.49 18.62 94.18 19.57 93.28 20.65V37.16H87.18V4.96C87.12 4.89 87.12 4.83 87.18 4.83L87.17 4.81Z" fill="white"/>
<path fill-rule="evenodd" clip-rule="evenodd" d="M83.11 7.64C83.05 10 83.17 12.56 83.05 14.78C82.32 14.85 81.75 14.04 81.19 13.63C78.99 12.01 74.64 10.06 71.59 12.08C70.8 12.55 70.01 13.63 70.35 15.18C70.8 17.4 74.47 17.74 76.5 18.35C78.76 19.02 81.13 20.17 82.43 21.79C84.07 23.81 84.57 27.52 83.73 30.62C82.21 36.14 77.07 38.37 70.86 37.76C67.98 37.49 65.61 36.61 63.35 35.47C63.41 33.04 63.29 30.42 63.41 28.13C64.26 28.13 64.88 28.94 65.5 29.41C67.76 31.16 72.1 33.32 75.6 31.63C76.62 31.16 77.8 29.95 77.24 28.06C76.56 25.7 72.39 25.37 70.24 24.62C66.46 23.34 63.02 20.98 63.41 14.51C63.52 12.35 64.26 10.94 65.1 9.73C66.74 7.51 69.67 5.89 73.06 5.62C77.18 5.35 80.28 6.36 83.11 7.64Z" fill="white"/>
<path fill-rule="evenodd" clip-rule="evenodd" d="M2.73998 6.15999H15.16V17.61C15.16 23.27 15.84 30.48 13.81 33.78C11.27 37.82 5.45998 38.43 -0.240021 37.08V30.81C0.659979 30.68 1.27998 31.28 2.18998 31.55C4.27998 32.22 6.98998 31.82 7.94998 30.2C9.01998 28.38 8.67998 24.54 8.67998 21.44V11.87C6.81998 11.74 4.66998 11.87 2.74998 11.8V6.33998C2.63998 6.20998 2.63998 6.13998 2.74998 6.13998L2.73998 6.15999Z" fill="white"/>
<path fill-rule="evenodd" clip-rule="evenodd" d="M27.57 13.1C32.71 12.7 35.98 15.26 37.5 18.96C39.7 24.21 38.57 31.29 36.03 34.52C33.26 38.02 27.39 39.17 23.22 36.54C19.72 34.38 17.63 29.26 18.54 22.46C18.94 19.5 19.89 17.47 21.42 15.86C22.94 14.24 24.98 13.3 27.57 13.1ZM26.67 18.75C24.13 20.43 23.9 29.39 26.22 31.75C27.52 33.03 29.89 32.83 30.96 31.62C31.98 30.47 32.37 27.98 32.37 25.56C32.37 21.59 31.47 17.88 28.02 18.35C27.4 18.42 27.06 18.48 26.67 18.75Z" fill="white"/>
<path fill-rule="evenodd" clip-rule="evenodd" d="M117.77 13.1C124.43 12.56 128.55 16.94 128.78 24.42C129.06 32.71 125.85 37.36 119.52 37.89C112.8 38.43 108.91 34.05 108.57 26.64C108.34 22.73 109.19 19.3 110.66 17.01C112.18 14.72 114.67 13.37 117.77 13.1ZM116.81 18.75C114.21 20.5 113.99 30.07 116.64 32.09C117.94 33.1 119.91 32.76 120.87 31.89C122.17 30.68 122.51 27.78 122.45 25.02C122.39 21.11 121.43 17.95 118.16 18.42C117.54 18.42 117.2 18.55 116.81 18.76V18.75Z" fill="white"/>
<path fill-rule="evenodd" clip-rule="evenodd" d="M138.14 36.14V45.84H131.99V13.84H138.14V16.06C139.72 14.78 141.13 13.37 143.73 13.1C150.05 12.49 152.25 21.72 150.9 29.13C150.28 32.36 148.64 35.13 146.5 36.54C144.24 38.09 140.69 38.02 138.15 36.14H138.14ZM143.5 31.15C145.25 29.2 145.53 22.73 144.06 20.3C143.5 19.36 142.37 18.75 140.96 18.89C140.17 18.96 138.36 19.5 138.14 20.24C137.91 20.91 138.14 22.19 138.14 23.14V31.9C140.23 32.64 142.32 32.44 143.5 31.16V31.15Z" fill="white"/>
</g>
<defs>
<clipPath id="clip0_1_60">
<rect width="161" height="46" fill="white"/>
</clipPath>
</defs>
</svg>
