<?xml version="1.0" encoding="UTF-8"?>
<svg id="Layer_2" data-name="Layer 2" xmlns="http://www.w3.org/2000/svg" viewBox="0 0 146.817 59.366">
  <g id="Layer_1-2" data-name="Layer 1">
    <g>
      <g>
        <path d="M2.605,59.366c-.588,0-1.345-.084-2.185-.252-.42-.084-.42-.168-.42-.336v-5.798c0-.168,.084-.336,.336-.252,.924,.252,1.513,.336,2.185,.336,1.26,0,1.512-.336,1.512-1.009V.965c0-.168,.084-.252,.252-.252h5.882c.168,0,.252,.084,.252,.252V52.308c0,4.454-2.941,7.059-7.815,7.059Z" fill="#fff"/>
        <path d="M21.931,59.366c-4.538,0-8.151-3.613-8.151-8.151V8.36C13.78,3.906,17.393,.209,21.931,.209c4.454,0,8.067,3.697,8.067,8.151V51.215c0,4.538-3.613,8.151-8.067,8.151Zm-1.765-7.983c0,.924,.756,1.681,1.765,1.681,.924,0,1.681-.756,1.681-1.681V8.191c0-.924-.756-1.68-1.681-1.68-1.008,0-1.765,.756-1.765,1.68V51.383Z" fill="#fff"/>
        <path d="M33.608,.713h5.882c7.983,0,9.832,5.882,9.832,15.461,0,7.731-1.008,10.504-2.521,11.68-.084,.084-.084,.252,0,.336,2.689,2.689,3.025,5.546,3.025,14.201,0,7.143-.504,16.47-9.327,16.47h-6.891c-.168,0-.252-.084-.252-.252V.965c0-.168,.084-.252,.252-.252Zm6.47,24.705c1.513,0,2.941-1.093,2.941-9.58,0-8.655-1.597-8.907-2.941-8.991-.168,0-.252,.084-.252,.252V25.166c0,.168,.084,.252,.252,.252Zm0,27.31h.42c2.941,0,2.941-6.975,2.941-10.504,0-4.033,0-10.671-2.773-10.671h-.588c-.168,0-.252,.084-.252,.252v20.671c0,.168,.084,.252,.252,.252Z" fill="#fff"/>
        <path d="M68.646,41.804v9.411c0,4.622-3.698,8.151-8.487,8.151-4.37-.168-7.815-3.782-7.815-8.235v-12.772c0-.168,.084-.252,.252-.252h5.882c.168,0,.252,.084,.252,.252v12.941c0,1.176,.756,1.765,1.68,1.765,1.009,0,1.765-.588,1.765-1.681v-10.252c0-3.949-2.269-7.227-4.285-10.419-2.101-3.109-5.378-8.235-5.378-14.79v-7.815c0-4.285,3.865-7.898,7.898-7.898h.168c3.949,0,7.814,3.193,7.814,7.898v11.344c0,.168-.084,.252-.252,.252h-5.882c-.168,0-.252-.084-.252-.252V8.36c0-1.093-.588-1.849-1.512-1.849-1.009,0-1.597,.672-1.597,1.849v8.487c0,3.781,2.269,7.059,4.285,10.252,2.017,3.109,5.462,7.73,5.462,14.705Z" fill="#fff"/>
        <path d="M81.836,58.61V31.636c0-.168-.084-.252-.252-.252h-3.277c-.168,0-.252,.084-.252,.252v26.974c0,.168-.084,.252-.252,.252h-5.966c-.168,0-.252-.084-.252-.252V.965c0-.168,.084-.252,.252-.252h5.966c.168,0,.252,.084,.252,.252V24.998c0,.168,.084,.252,.252,.252h3.277c.168,0,.252-.084,.252-.252V.965c0-.168,.084-.252,.252-.252h5.882c.168,0,.252,.084,.252,.252V58.61c0,.168-.084,.252-.252,.252h-5.882c-.168,0-.252-.084-.252-.252Z" fill="#fff"/>
        <path d="M99.732,59.366c-4.538,0-8.151-3.613-8.151-8.151V8.36c0-4.454,3.613-8.151,8.151-8.151,4.454,0,8.067,3.697,8.067,8.151V51.215c0,4.538-3.613,8.151-8.067,8.151Zm-1.765-7.983c0,.924,.756,1.681,1.765,1.681,.924,0,1.681-.756,1.681-1.681V8.191c0-.924-.756-1.68-1.681-1.68-1.008,0-1.765,.756-1.765,1.68V51.383Z" fill="#fff"/>
        <path d="M111.158,58.61V.965c0-.168,.084-.252,.252-.252h6.554c6.975,0,10.252,5.126,10.252,17.898,0,16.05-4.874,18.15-9.916,18.15h-.42c-.168,0-.252,.084-.252,.252v21.596c0,.168-.168,.252-.252,.252h-5.966c-.168,0-.252-.084-.252-.252Zm6.47-28.486c0,.084,.084,.168,.168,.168h.588c1.765,0,3.193-.504,3.193-11.68,0-9.075-1.344-11.764-3.445-11.764h-.336c-.084,0-.168,.084-.168,.252V30.124Z" fill="#fff"/>
      </g>
      <path d="M139.358,14.918c-4.118,0-7.459-3.341-7.459-7.459s3.341-7.459,7.459-7.459c4.097,0,7.459,3.341,7.459,7.459s-3.362,7.459-7.459,7.459Zm-5.946-7.459c0,3.278,2.668,5.946,5.946,5.946s5.946-2.668,5.946-5.946-2.668-5.946-5.946-5.946-5.946,2.668-5.946,5.946Zm3.698,4.265c0,.084,.063,.147,.147,.147h1.24c.084,0,.147-.063,.147-.147v-2.584c0-.063,.063-.126,.126-.126h.651c.084,0,.168,.042,.189,.126l1.135,2.605c.042,.084,.126,.126,.21,.126h1.282c.084,0,.147-.084,.105-.168l-1.429-3.109c-.021-.063,0-.126,.042-.168,.735-.546,1.219-1.429,1.219-2.375v-.021c0-1.66-1.345-2.983-3.004-2.983h-1.912c-.084,0-.147,.063-.147,.147V11.724Zm1.534-4.265v-2.857c0-.084,.063-.126,.126-.126h.399c.819,0,1.45,.651,1.45,1.45v.21c0,.798-.63,1.45-1.45,1.45h-.399c-.063,0-.126-.063-.126-.126Z" fill="#fff"/>
    </g>
  </g>
</svg>