<svg width="393" height="50" viewBox="0 0 393 50" fill="none" xmlns="http://www.w3.org/2000/svg">
<path d="M-1 25.2133H11.4286V37.6133H-1V25.2133Z" fill="#0125DC"/>
<path d="M-1 12.8133H11.4286V25.2133H-1V12.8133Z" fill="#0125DC"/>
<path d="M11.4286 0.413334H23.8571V12.8133H11.4286V0.413334Z" fill="#0125DC"/>
<path d="M23.8571 20.6667H36.2857V33.0667H23.8571V20.6667Z" fill="#0125DC"/>
<path d="M54.9286 25.2133H67.3571V37.6133H54.9286V25.2133Z" fill="#0125DC"/>
<path d="M123.286 24.8H135.714V37.2H123.286V24.8Z" fill="#0125DC"/>
<path d="M110.857 12.8133H123.286V25.2133H110.857V12.8133Z" fill="#0125DC"/>
<path d="M98.4286 25.2133H110.857V37.6133H98.4286V25.2133Z" fill="#0125DC"/>
<path d="M73.5714 24.8H86V37.2H73.5714V24.8Z" fill="#0125DC"/>
<path d="M42.5 12.8133H54.9286V25.2133H42.5V12.8133Z" fill="#0125DC"/>
<path d="M11.4286 37.2H23.8571V49.6H11.4286V37.2Z" fill="#0125DC"/>
<path d="M23.8571 37.2H36.2857V49.6H23.8571V37.2Z" fill="#0125DC"/>
<path d="M36.2857 37.2H48.7143V49.6H36.2857V37.2Z" fill="#0125DC"/>
<path d="M48.7143 37.2H61.1429V49.6H48.7143V37.2Z" fill="#0125DC"/>
<path d="M61.1429 37.2H73.5714V49.6H61.1429V37.2Z" fill="#0125DC"/>
<path d="M73.5714 37.2H86V49.6H73.5714V37.2Z" fill="#0125DC"/>
<path d="M98.4286 37.2H110.857V49.6H98.4286V37.2Z" fill="#0125DC"/>
<path d="M110.857 37.2H123.286V49.6H110.857V37.2Z" fill="#0125DC"/>
<path d="M135.714 37.2H148.143V49.6H135.714V37.2Z" fill="#0125DC"/>
<path d="M148.143 37.2H160.571V49.6H148.143V37.2Z" fill="#0125DC"/>
<path d="M160.571 37.2H173V49.6H160.571V37.2Z" fill="#0125DC"/>
<path d="M173 37.2H185.429V49.6H173V37.2Z" fill="#0125DC"/>
<path d="M185.429 37.2H197.857V49.6H185.429V37.2Z" fill="#0125DC"/>
<path d="M197.857 37.2H210.286V49.6H197.857V37.2Z" fill="#0125DC"/>
<path d="M210.286 37.2H222.714V49.6H210.286V37.2Z" fill="#0125DC"/>
<path d="M222.714 37.2H235.143V49.6H222.714V37.2Z" fill="#0125DC"/>
<path d="M235.143 37.2H247.571V49.6H235.143V37.2Z" fill="#0125DC"/>
<path d="M260 37.2H272.429V49.6H260V37.2Z" fill="#0125DC"/>
<path d="M272.429 37.2H284.857V49.6H272.429V37.2Z" fill="#0125DC"/>
<path d="M297.286 37.2H309.714V49.6H297.286V37.2Z" fill="#0125DC"/>
<path d="M309.714 37.2H322.143V49.6H309.714V37.2Z" fill="#0125DC"/>
<path d="M322.143 37.2H334.571V49.6H322.143V37.2Z" fill="#0125DC"/>
<path d="M297.286 24.8H309.714V37.2H297.286V24.8Z" fill="#0125DC"/>
<path d="M160.571 24.8H173V37.2H160.571V24.8Z" fill="#0125DC"/>
<path d="M297.286 12.4H309.714V24.8H297.286V12.4Z" fill="#0125DC"/>
<path d="M160.571 12.4H173V24.8H160.571V12.4Z" fill="#0125DC"/>
<path d="M322.143 24.8H334.571V37.2H322.143V24.8Z" fill="#0125DC"/>
<path d="M185.429 24.8H197.857V37.2H185.429V24.8Z" fill="#0125DC"/>
<path d="M309.714 12.4H322.143V24.8H309.714V12.4Z" fill="#0125DC"/>
<path d="M173 12.4H185.429V24.8H173V12.4Z" fill="#0125DC"/>
<path d="M334.571 12.4H347V24.8H334.571V12.4Z" fill="#0125DC"/>
<path d="M197.857 12.4H210.286V24.8H197.857V12.4Z" fill="#0125DC"/>
<path d="M359.429 24.8H371.857V37.2H359.429V24.8Z" fill="#0125DC"/>
<path d="M222.714 24.8H235.143V37.2H222.714V24.8Z" fill="#0125DC"/>
<path d="M371.857 12.4H384.286V24.8H371.857V12.4Z" fill="#0125DC"/>
<path d="M235.143 12.4H247.571V24.8H235.143V12.4Z" fill="#0125DC"/>
<path d="M384.286 24.8H396.714V37.2H384.286V24.8Z" fill="#0125DC"/>
<path d="M247.571 24.8H260V37.2H247.571V24.8Z" fill="#0125DC"/>
<path d="M371.857 0H384.286V12.4H371.857V0Z" fill="#0125DC"/>
<path d="M284.857 0.413334H297.286V12.8133H284.857V0.413334Z" fill="#0125DC"/>
<path d="M266.214 8.26667H278.643V20.6667H266.214V8.26667Z" fill="#0125DC"/>
<path d="M334.571 0H347V12.4H334.571V0Z" fill="#0125DC"/>
<path d="M197.857 0H210.286V12.4H197.857V0Z" fill="#0125DC"/>
<path d="M334.571 37.2H347V49.6H334.571V37.2Z" fill="#0125DC"/>
<path d="M347 37.2H359.429V49.6H347V37.2Z" fill="#0125DC"/>
<path d="M371.857 37.2H384.286V49.6H371.857V37.2Z" fill="#0125DC"/>
<path d="M384.286 37.2H396.714V49.6H384.286V37.2Z" fill="#0125DC"/>
</svg>
