<svg xmlns="http://www.w3.org/2000/svg" width="150" height="175" viewBox="0 0 150 175"><rect width="100%" height="100%" fill="#FFFFFF"/><path fill="#0125DC" d="M47.43 87.525q0-1.37.51-2.6t1.39-2.11 2.11-1.41 2.64-.53 2.62.53 2.11 1.41 1.43 2.11.53 2.6q0 1.4-.53 2.61t-1.43 2.09-2.11 1.39-2.62.51-2.64-.51-2.11-1.39-1.39-2.09-.51-2.61m20.9 0q0-1.37.51-2.6t1.39-2.11 2.11-1.41 2.64-.53 2.62.53 2.11 1.41 1.43 2.11.53 2.6q0 1.4-.53 2.61t-1.43 2.09-2.11 1.39-2.62.51-2.64-.51-2.11-1.39-1.39-2.09-.51-2.61m20.9 0q0-1.37.51-2.6t1.39-2.11 2.11-1.41 2.64-.53 2.62.53 2.11 1.41 1.43 2.11.53 2.6q0 1.4-.53 2.61t-1.43 2.09-2.11 1.39-2.62.51-2.64-.51-2.11-1.39-1.39-2.09-.51-2.61"/></svg>