<svg width="415" height="183" viewBox="0 0 415 183" fill="none" xmlns="http://www.w3.org/2000/svg">
<rect width="415" height="183" fill="#0125DC"/>
<path d="M47.3372 158.523C46.0071 158.523 44.2947 158.333 42.3945 157.954C41.4445 157.764 41.4445 157.575 41.4445 157.195V144.103C41.4445 143.724 41.6345 143.345 42.2045 143.534C44.2947 144.103 45.627 144.293 47.1471 144.293C49.9974 144.293 50.5674 143.534 50.5674 142.015L50.5674 26.654C50.5674 26.2746 50.7574 26.085 51.1374 26.085L64.4429 26.085C64.823 26.085 65.013 26.2746 65.013 26.654L65.013 142.586C65.013 152.643 58.3602 158.525 47.3349 158.525L47.3372 158.523Z" fill="white"/>
<path d="M91.0539 158.523C80.7886 158.523 72.6157 150.365 72.6157 140.118L72.6157 43.3522C72.6157 33.2951 80.7886 24.9473 91.0539 24.9473C101.129 24.9473 109.302 33.2951 109.302 43.3522L109.302 140.118C109.302 150.365 101.129 158.523 91.0539 158.523ZM87.0613 140.498C87.0613 142.584 88.7714 144.293 91.0539 144.293C93.144 144.293 94.8564 142.586 94.8564 140.498L94.8564 42.9706C94.8564 40.8842 93.1463 39.1771 91.0539 39.1771C88.7737 39.1771 87.0613 40.8842 87.0613 42.9706L87.0613 140.498Z" fill="white"/>
<path d="M117.468 26.085H130.774C148.832 26.085 153.014 39.3665 153.014 60.9958C153.014 78.4523 150.734 84.7137 147.312 87.3691C147.122 87.5588 147.122 87.9382 147.312 88.1278C153.394 94.1996 154.154 100.651 154.154 120.194C154.154 136.322 153.014 157.383 133.056 157.383H117.468C117.088 157.383 116.898 157.193 116.898 156.814L116.898 26.654C116.898 26.2746 117.088 26.085 117.468 26.085ZM132.104 81.8687C135.526 81.8687 138.756 79.4007 138.756 60.2371C138.756 40.6942 135.144 40.1252 132.104 39.9355C131.724 39.9355 131.534 40.1252 131.534 40.5045V81.2997C131.534 81.679 131.724 81.8687 132.104 81.8687ZM132.104 143.534H133.054C139.706 143.534 139.706 127.785 139.706 119.816C139.706 110.71 139.706 95.7215 133.434 95.7215H132.104C131.724 95.7215 131.534 95.9111 131.534 96.2905L131.534 142.965C131.534 143.345 131.724 143.534 132.104 143.534Z" fill="white"/>
<path d="M196.727 118.868L196.727 140.118C196.727 150.555 188.362 158.523 177.529 158.523C167.643 158.144 159.851 149.983 159.851 139.928L159.851 111.089C159.851 110.71 160.041 110.52 160.421 110.52H173.726C174.106 110.52 174.296 110.71 174.296 111.089L174.296 140.31C174.296 142.965 176.006 144.295 178.096 144.295C180.379 144.295 182.089 142.968 182.089 140.5L182.089 117.351C182.089 108.434 176.956 101.032 172.396 93.8248C167.643 86.8047 160.231 75.2302 160.231 60.4291V42.7828C160.231 33.1073 168.974 24.9492 178.096 24.9492H178.476C187.409 24.9492 196.152 32.159 196.152 42.7828V68.3975C196.152 68.7769 195.962 68.9665 195.582 68.9665H182.277C181.897 68.9665 181.707 68.7769 181.707 68.3975V43.3519C181.707 40.8839 180.377 39.1768 178.286 39.1768C176.004 39.1768 174.674 40.6942 174.674 43.3519V62.5154C174.674 71.0529 179.807 78.4546 184.367 85.6644C188.93 92.6845 196.722 103.119 196.722 118.868H196.727Z" fill="white"/>
<path d="M226.563 156.816L226.563 95.9089C226.563 95.5295 226.373 95.3399 225.993 95.3399H218.58C218.2 95.3399 218.01 95.5295 218.01 95.9089L218.01 156.816C218.01 157.195 217.82 157.385 217.44 157.385H203.945C203.565 157.385 203.375 157.195 203.375 156.816L203.375 26.654C203.375 26.2746 203.565 26.085 203.945 26.085H217.44C217.82 26.085 218.01 26.2746 218.01 26.654V80.9203C218.01 81.2997 218.2 81.4893 218.58 81.4893H225.993C226.373 81.4893 226.563 81.2997 226.563 80.9203V26.654C226.563 26.2746 226.753 26.085 227.133 26.085H240.439C240.819 26.085 241.009 26.2746 241.009 26.654L241.009 156.816C241.009 157.195 240.819 157.385 240.439 157.385H227.133C226.753 157.385 226.563 157.195 226.563 156.816Z" fill="white"/>
<path d="M267.045 158.523C256.78 158.523 248.607 150.365 248.607 140.118L248.607 43.3517C248.607 33.2946 256.78 24.9468 267.045 24.9468C277.121 24.9468 285.293 33.2946 285.293 43.3517V140.118C285.293 150.365 277.121 158.523 267.045 158.523ZM263.053 140.497C263.053 142.584 264.763 144.293 267.045 144.293C269.135 144.293 270.848 142.586 270.848 140.497V42.9701C270.848 40.8837 269.138 39.1766 267.045 39.1766C264.765 39.1766 263.053 40.8837 263.053 42.9701V140.497Z" fill="white"/>
<path d="M292.892 156.816V26.6545C292.892 26.2751 293.082 26.0854 293.462 26.0854H308.287C324.065 26.0854 331.478 37.6599 331.478 66.499C331.478 102.74 320.453 107.482 309.047 107.482H308.097C307.717 107.482 307.527 107.671 307.527 108.051V156.814C307.527 157.194 307.147 157.383 306.957 157.383H293.462C293.082 157.383 292.892 157.196 292.892 156.816ZM307.527 92.4953C307.527 92.6849 307.717 92.8746 307.907 92.8746H309.237C313.23 92.8746 316.46 91.7366 316.46 66.5013C316.46 46.01 313.42 39.9382 308.667 39.9382H307.907C307.717 39.9382 307.527 40.1279 307.527 40.5072V92.4953Z" fill="white"/>
<path d="M356.682 58.1598C347.367 58.1598 339.81 50.6159 339.81 41.3175C339.81 32.0191 347.367 24.4751 356.682 24.4751C365.95 24.4751 373.555 32.0191 373.555 41.3175C373.555 50.6159 365.95 58.1598 356.682 58.1598ZM343.232 41.3175C343.232 48.7192 349.267 54.7435 356.682 54.7435C364.097 54.7435 370.133 48.7192 370.133 41.3175C370.133 33.9158 364.097 27.8914 356.682 27.8914C349.267 27.8914 343.232 33.9158 343.232 41.3175ZM351.597 50.9478C351.597 51.1375 351.74 51.2797 351.93 51.2797H354.735C354.925 51.2797 355.067 51.1375 355.067 50.9478V45.1131C355.067 44.9709 355.21 44.8286 355.352 44.8286H356.825C357.015 44.8286 357.205 44.9235 357.252 45.1131L359.82 50.9952C359.915 51.1849 360.105 51.2797 360.295 51.2797H363.195C363.385 51.2797 363.527 51.0901 363.432 50.9004L360.2 43.8803C360.152 43.738 360.2 43.5958 360.295 43.5009C361.958 42.2681 363.052 40.2743 363.052 38.1382V38.0908C363.052 34.3425 360.01 31.3552 356.257 31.3552H351.932C351.742 31.3552 351.599 31.4975 351.599 31.6871L351.597 50.9478ZM355.067 41.3175V34.8664C355.067 34.6767 355.21 34.5819 355.352 34.5819H356.255C358.107 34.5819 359.535 36.0518 359.535 37.856V38.3301C359.535 40.132 358.11 41.6042 356.255 41.6042H355.352C355.21 41.6042 355.067 41.4597 355.067 41.3175Z" fill="white"/>
</svg>
