<svg width="325" height="131" viewBox="0 0 325 131" fill="none" xmlns="http://www.w3.org/2000/svg">
<rect width="312.03" height="109.185" transform="translate(4 12.9597) rotate(-2.38037)" fill="#FF4D20"/>
<path d="M55.263 48.0441L63.574 47.6986L64.5764 71.8142C64.659 74.074 64.2018 76.072 63.2049 77.8081C62.2075 79.5329 60.7858 80.8999 58.9397 81.9093C57.105 82.9181 54.9558 83.4738 52.492 83.5762C50.3121 83.6668 48.315 83.3688 46.5009 82.6822C44.6981 81.9952 43.2354 80.8731 42.113 79.3161C41.0019 77.7587 40.4001 75.7308 40.3076 73.2324L48.7037 72.8834C48.7751 73.779 48.9773 74.5383 49.3102 75.1613C49.6541 75.7726 50.1108 76.2256 50.6804 76.5204C51.2499 76.8152 51.9207 76.9465 52.6928 76.9144C53.4989 76.8809 54.1731 76.6823 54.7152 76.3185C55.257 75.9434 55.6556 75.4094 55.9111 74.7163C56.178 74.0228 56.2961 73.1706 56.2654 72.1596L55.263 48.0441ZM102.512 63.5496C102.671 67.3872 102.068 70.6708 100.703 73.4003C99.3382 76.1298 97.4242 78.2395 94.9612 79.7295C92.5096 81.2189 89.7227 82.0286 86.6004 82.1584C83.4667 82.2886 80.6163 81.7077 78.049 80.4154C75.4818 79.1232 73.4049 77.1794 71.8185 74.5839C70.2429 71.9767 69.3756 68.7599 69.2166 64.9337C69.057 61.0961 69.6541 57.8128 71.0079 55.0837C72.3729 52.3542 74.2813 50.2447 76.7329 48.7553C79.1845 47.2658 81.9772 46.4559 85.1108 46.3257C88.2331 46.1959 91.0777 46.7714 93.6444 48.0523C96.2226 49.3327 98.3051 51.2763 99.892 53.8831C101.479 56.4898 102.352 59.712 102.512 63.5496ZM93.8941 63.9079C93.7997 61.6371 93.3964 59.7318 92.6841 58.1918C91.9831 56.6514 91.0141 55.5032 89.7771 54.7471C88.5515 53.9905 87.0984 53.6472 85.4181 53.717C83.7491 53.7864 82.3296 54.2492 81.1596 55.1053C79.9896 55.9615 79.1136 57.1864 78.5315 58.7801C77.9608 60.3734 77.7227 62.3054 77.8171 64.5762C77.9115 66.8469 78.3091 68.7525 79.0101 70.2929C79.7224 71.8328 80.697 72.9809 81.9341 73.7369C83.1711 74.493 84.6241 74.8364 86.2931 74.767C87.9735 74.6972 89.393 74.2344 90.5516 73.3787C91.7216 72.5226 92.592 71.2979 93.1626 69.7046C93.7447 68.1109 93.9885 66.1786 93.8941 63.9079ZM108.158 80.7845L106.709 45.9056L121.253 45.301C123.864 45.1924 126.065 45.4706 127.856 46.1354C129.658 46.7998 131.029 47.7777 131.97 49.0693C132.922 50.3604 133.434 51.8802 133.507 53.6287C133.562 54.9571 133.333 56.1552 132.82 57.2229C132.307 58.2792 131.576 59.1682 130.628 59.8901C129.68 60.6119 128.57 61.1357 127.299 61.4615L127.313 61.8021C128.723 61.8117 130.039 62.1381 131.26 62.7811C132.493 63.4236 133.498 64.3486 134.276 65.556C135.053 66.752 135.477 68.1902 135.547 69.8705C135.625 71.7439 135.218 73.4384 134.325 74.9541C133.432 76.4584 132.101 77.6738 130.331 78.6004C128.561 79.5156 126.387 80.0268 123.81 80.1339L108.158 80.7845ZM116.306 73.6388L121.518 73.4222C123.346 73.3462 124.677 72.944 125.511 72.2155C126.356 71.4866 126.753 70.5034 126.702 69.2658C126.664 68.3688 126.422 67.6055 125.975 66.9758C125.528 66.3347 124.911 65.8543 124.124 65.5344C123.337 65.2032 122.404 65.06 121.325 65.1048L115.961 65.3278L116.306 73.6388ZM115.735 59.895L120.401 59.701C121.321 59.6628 122.132 59.4755 122.835 59.1393C123.537 58.803 124.075 58.337 124.448 57.7415C124.833 57.1454 125.008 56.4387 124.974 55.6212C124.926 54.4518 124.473 53.5493 123.617 52.9139C122.76 52.2785 121.628 51.99 120.22 52.0486L115.417 52.2482L115.735 59.895ZM157.844 54.2549C157.678 53.0106 157.133 52.0609 156.207 51.4056C155.292 50.7385 154.012 50.4391 152.365 50.5076C151.275 50.5529 150.373 50.7326 149.658 51.0466C148.943 51.3607 148.415 51.775 148.072 52.2897C147.729 52.793 147.565 53.3628 147.58 53.9991C147.579 54.5223 147.7 54.9779 147.944 55.3659C148.199 55.7533 148.554 56.0911 149.01 56.3793C149.476 56.6556 150.032 56.8941 150.677 57.0947C151.322 57.2954 152.046 57.4643 152.848 57.6016L155.874 58.1582C157.615 58.4612 159.157 58.8975 160.5 59.4672C161.854 60.0364 162.998 60.7339 163.931 61.5595C164.875 62.3846 165.603 63.3495 166.115 64.4542C166.628 65.5589 166.919 66.8092 166.988 68.2053C167.068 70.4084 166.59 72.3219 165.555 73.9459C164.519 75.5699 162.985 76.8449 160.954 77.771C158.934 78.6966 156.47 79.2198 153.564 79.3406C150.646 79.4619 148.084 79.1305 145.88 78.3464C143.675 77.5623 141.933 76.304 140.656 74.5715C139.378 72.839 138.666 70.611 138.518 67.8874L146.591 67.5519C146.706 68.6731 147.046 69.5973 147.61 70.3244C148.175 71.0516 148.931 71.5889 149.878 71.9362C150.837 72.283 151.935 72.4307 153.172 72.3793C154.307 72.3321 155.266 72.1387 156.048 71.7991C156.842 71.4591 157.443 71.0076 157.851 70.4446C158.26 69.8817 158.456 69.2481 158.438 68.5436C158.399 67.8856 158.171 67.3321 157.755 66.8831C157.337 66.4227 156.707 66.0395 155.864 65.7333C155.032 65.4154 153.974 65.1352 152.69 64.8928L149.01 64.1928C145.961 63.6258 143.536 62.6063 141.735 61.1344C139.933 59.6511 138.983 57.5865 138.884 54.9406C138.783 52.7839 139.284 50.8694 140.386 49.1972C141.488 47.525 143.053 46.1918 145.082 45.1975C147.11 44.2033 149.447 43.6513 152.093 43.5413C154.795 43.429 157.159 43.7913 159.184 44.6284C161.22 45.4536 162.823 46.6665 163.992 48.267C165.162 49.8676 165.804 51.7516 165.916 53.9193L157.844 54.2549ZM171.666 78.1446L170.216 43.2656L178.646 42.9152L179.228 56.9144L192.972 56.3431L192.39 42.3438L200.803 41.9941L202.253 76.8731L193.84 77.2228L193.258 63.2065L179.514 63.7778L180.096 77.7941L171.666 78.1446ZM239.737 57.8453C239.896 61.6829 239.294 64.9664 237.929 67.6959C236.563 70.4255 234.649 72.5352 232.186 74.0251C229.735 75.5146 226.948 76.3242 223.826 76.454C220.692 76.5843 217.841 76.0033 215.274 74.7111C212.707 73.4189 210.63 71.475 209.044 68.8796C207.468 66.2723 206.601 63.0556 206.442 59.2293C206.282 55.3918 206.879 52.1084 208.233 49.3794C209.598 46.6499 211.507 44.5404 213.958 43.0509C216.41 41.5615 219.202 40.7516 222.336 40.6213C225.458 40.4915 228.303 41.0671 230.87 42.3479C233.448 43.6283 235.53 45.5719 237.117 48.1787C238.704 50.7855 239.577 54.0077 239.737 57.8453ZM231.119 58.2035C231.025 55.9328 230.622 54.0274 229.909 52.4875C229.208 50.9471 228.239 49.7988 227.002 49.0427C225.777 48.2862 224.324 47.9428 222.643 48.0127C220.974 48.0821 219.555 48.5448 218.385 49.401C217.215 50.2571 216.339 51.4821 215.757 53.0758C215.186 54.6691 214.948 56.6011 215.042 58.8718C215.137 61.1426 215.534 63.0482 216.235 64.5886C216.948 66.1285 217.922 67.2765 219.159 68.0326C220.396 68.7887 221.849 69.1321 223.518 69.0627C225.199 68.9928 226.618 68.5301 227.777 67.6744C228.947 66.8182 229.817 65.5935 230.388 64.0003C230.97 62.4065 231.214 60.4743 231.119 58.2035ZM245.384 75.0802L243.934 40.2012L258.342 39.6023C260.953 39.4937 263.228 39.911 265.167 40.854C267.116 41.7852 268.645 43.1376 269.754 44.9113C270.862 46.6736 271.466 48.7526 271.566 51.1482C271.666 53.5553 271.225 55.6833 270.245 57.5325C269.275 59.3698 267.839 60.8227 265.939 61.8912C264.038 62.9597 261.754 63.5494 259.086 63.6603L250.196 64.0299L249.92 57.3879L257.243 57.0835C258.515 57.0306 259.567 56.7651 260.4 56.2869C261.245 55.8082 261.872 55.1623 262.282 54.3491C262.691 53.5246 262.873 52.5787 262.829 51.5114C262.784 50.4328 262.524 49.511 262.049 48.746C261.573 47.9696 260.895 47.3837 260.014 46.9881C259.133 46.5925 258.062 46.4209 256.802 46.4733L252.647 46.646L253.814 74.7297L245.384 75.0802Z" fill="white"/>
<path d="M280.658 47.7322C276.775 47.8575 273.522 44.8083 273.397 40.9248C273.272 37.0413 276.321 33.789 280.205 33.6638C284.068 33.5392 287.34 36.5877 287.466 40.4712C287.591 44.3547 284.522 47.6077 280.658 47.7322ZM274.824 40.8788C274.924 43.9701 277.521 46.4051 280.612 46.3054C283.704 46.2057 286.139 43.6085 286.039 40.5172C285.939 37.4259 283.342 34.9909 280.251 35.0906C277.159 35.1903 274.724 37.7875 274.824 40.8788ZM278.441 44.7885C278.444 44.8677 278.505 44.9252 278.584 44.9226L279.754 44.8849C279.833 44.8824 279.89 44.8211 279.888 44.7418L279.809 42.305C279.807 42.2456 279.865 42.1842 279.924 42.1823L280.538 42.1625C280.617 42.16 280.698 42.197 280.72 42.2756L281.87 44.6978C281.912 44.7757 281.992 44.8127 282.072 44.8102L283.281 44.7712C283.36 44.7687 283.417 44.6875 283.375 44.6096L281.932 41.7211C281.911 41.6623 281.929 41.6023 281.967 41.5614C282.643 41.0241 283.073 40.1767 283.044 39.2846L283.044 39.2647C282.993 37.6993 281.685 36.4925 280.12 36.543L278.317 36.6011C278.238 36.6037 278.18 36.665 278.183 36.7442L278.441 44.7885ZM279.758 40.7197L279.671 38.0254C279.669 37.9462 279.727 37.9047 279.786 37.9027L280.163 37.8906C280.935 37.8657 281.55 38.4605 281.574 39.214L281.58 39.412C281.605 40.1646 281.03 40.7986 280.257 40.8235L279.881 40.8356C279.821 40.8376 279.76 40.7791 279.758 40.7197Z" fill="white"/>
</svg>
