<svg width="346" height="192" viewBox="0 0 346 192" fill="none" xmlns="http://www.w3.org/2000/svg">
<rect x="0.3" y="38.7" width="37.8" height="37.8" stroke="#0125DC" stroke-opacity="0.1" stroke-width="0.6"/>
<rect x="0.3" y="115.5" width="37.8" height="37.8" stroke="#0125DC" stroke-opacity="0.1" stroke-width="0.6"/>
<rect x="0.3" y="153.9" width="37.8" height="37.8" stroke="#0125DC" stroke-opacity="0.1" stroke-width="0.6"/>
<rect x="38.6999" y="38.7" width="37.8" height="37.8" stroke="#0125DC" stroke-opacity="0.1" stroke-width="0.6"/>
<rect x="38.6999" y="77.1" width="37.8" height="37.8" stroke="#0125DC" stroke-opacity="0.1" stroke-width="0.6"/>
<rect x="38.6999" y="115.5" width="37.8" height="37.8" stroke="#0125DC" stroke-opacity="0.1" stroke-width="0.6"/>
<rect x="77.0998" y="0.3" width="37.8" height="37.8" stroke="#0125DC" stroke-opacity="0.1" stroke-width="0.6"/>
<rect x="77.0998" y="38.7" width="37.8" height="37.8" stroke="#0125DC" stroke-opacity="0.1" stroke-width="0.6"/>
<rect x="77.0998" y="77.1" width="37.8" height="37.8" stroke="#0125DC" stroke-opacity="0.1" stroke-width="0.6"/>
<rect x="77.0998" y="115.5" width="37.8" height="37.8" stroke="#0125DC" stroke-opacity="0.1" stroke-width="0.6"/>
<rect x="77.1003" y="153.9" width="37.8" height="37.8" stroke="#0125DC" stroke-opacity="0.1" stroke-width="0.6"/>
<rect x="115.5" y="0.3" width="37.8" height="37.8" stroke="#0125DC" stroke-opacity="0.1" stroke-width="0.6"/>
<rect x="115.5" y="38.7" width="37.8" height="37.8" stroke="#0125DC" stroke-opacity="0.1" stroke-width="0.6"/>
<rect x="115.5" y="77.1" width="37.8" height="37.8" stroke="#0125DC" stroke-opacity="0.1" stroke-width="0.6"/>
<rect x="115.5" y="115.5" width="37.8" height="37.8" stroke="#0125DC" stroke-opacity="0.1" stroke-width="0.6"/>
<rect x="153.9" y="0.3" width="37.8" height="37.8" stroke="#0125DC" stroke-opacity="0.1" stroke-width="0.6"/>
<rect x="153.9" y="38.7001" width="37.8" height="37.8" stroke="#0125DC" stroke-opacity="0.1" stroke-width="0.6"/>
<rect x="153.9" y="77.1001" width="37.8" height="37.8" stroke="#0125DC" stroke-opacity="0.1" stroke-width="0.6"/>
<rect x="192.3" y="38.7001" width="37.8" height="37.8" stroke="#0125DC" stroke-opacity="0.1" stroke-width="0.6"/>
<rect x="192.3" y="77.1001" width="37.8" height="37.8" stroke="#0125DC" stroke-opacity="0.1" stroke-width="0.6"/>
<rect x="192.3" y="115.5" width="37.8" height="37.8" stroke="#0125DC" stroke-opacity="0.1" stroke-width="0.6"/>
<rect x="230.7" y="0.3" width="37.8" height="37.8" stroke="#0125DC" stroke-opacity="0.1" stroke-width="0.6"/>
<rect x="230.7" y="77.1001" width="37.8" height="37.8" stroke="#0125DC" stroke-opacity="0.1" stroke-width="0.6"/>
<rect x="230.7" y="115.5" width="37.8" height="37.8" stroke="#0125DC" stroke-opacity="0.1" stroke-width="0.6"/>
<rect x="230.7" y="153.9" width="37.8" height="37.8" stroke="#0125DC" stroke-opacity="0.1" stroke-width="0.6"/>
<rect x="269.1" y="77.1001" width="37.8" height="37.8" stroke="#0125DC" stroke-opacity="0.1" stroke-width="0.6"/>
<rect x="269.1" y="115.5" width="37.8" height="37.8" stroke="#0125DC" stroke-opacity="0.1" stroke-width="0.6"/>
<rect x="307.501" y="0.3" width="37.8" height="37.8" stroke="#0125DC" stroke-opacity="0.1" stroke-width="0.6"/>
<rect x="307.501" y="77.1001" width="37.8" height="37.8" stroke="#0125DC" stroke-opacity="0.1" stroke-width="0.6"/>
<rect x="307.501" y="115.5" width="37.8" height="37.8" stroke="#0125DC" stroke-opacity="0.1" stroke-width="0.6"/>
<rect x="307.501" y="153.9" width="37.8" height="37.8" stroke="#0125DC" stroke-opacity="0.1" stroke-width="0.6"/>
</svg>
