<?xml version="1.0" encoding="UTF-8"?>
<svg id="Layer_2" data-name="Layer 2" xmlns="http://www.w3.org/2000/svg" viewBox="0 0 130.817 159.177">
  <g id="Layer_1-2" data-name="Layer 1">
    <g>
        <path d="M6.954,158.505c-1.571,0-3.59-.225-5.833-.674-1.122-.22-1.122-.445-1.122-.894v-15.477c0-.45,.225-.899,.897-.674,2.468,.674,4.039,.899,5.833,.899,3.365,0,4.037-.899,4.037-2.693V2.613c0-.45,.225-.674,.674-.674h15.7c.45,0,.674,.225,.674,.674V139.665c0,11.885-7.851,18.839-20.86,18.839Z" fill="#0125DC"/>
      <path d="M82.72,112.295v25.124c0,12.335-9.872,21.757-22.656,21.757-11.663-.45-20.86-10.092-20.86-21.982v-34.092c0-.45,.225-.674,.672-.674h15.702c.45,0,.674,.225,.674,.674v34.542c0,3.137,2.018,4.711,4.484,4.711,2.693,0,4.711-1.574,4.711-4.486v-27.368c0-10.541-6.055-19.289-11.438-27.812-5.608-8.298-14.356-21.982-14.356-39.478V22.349c0-11.441,10.316-21.083,21.083-21.083h.45c10.541,0,20.86,8.523,20.86,21.083v30.28c0,.45-.225,.674-.672,.674h-15.702c-.45,0-.672-.225-.672-.674V23.023c0-2.918-1.571-4.936-4.039-4.936-2.69,0-4.261,1.794-4.261,4.936v22.656c0,10.092,6.058,18.839,11.441,27.362,5.383,8.298,14.581,20.638,14.581,39.253Z" fill="#0125DC"/>
      <path d="M110.908,39.814c-10.99,0-19.906-8.916-19.906-19.907S99.918,0,110.908,0s19.908,8.916,19.908,19.907-8.973,19.907-19.908,19.907Zm-15.869-19.907c0,8.748,7.123,15.87,15.869,15.87s15.871-7.122,15.871-15.87-7.123-15.87-15.871-15.87-15.869,7.122-15.869,15.87Zm9.869,11.384c0,.224,.168,.392,.393,.392h3.309c.225,0,.393-.168,.393-.392v-6.897c0-.168,.168-.336,.338-.336h1.738c.223,0,.447,.112,.504,.336l3.027,6.953c.113,.225,.338,.336,.561,.336h3.422c.225,0,.393-.224,.279-.448l-3.812-8.299c-.057-.168,0-.336,.111-.449,1.963-1.458,3.254-3.813,3.254-6.336v-.056c0-4.43-3.59-7.963-8.02-7.963h-5.104c-.225,0-.393,.168-.393,.393V31.291Zm4.094-11.384v-7.626c0-.224,.168-.336,.338-.336h1.064c2.188,0,3.869,1.739,3.869,3.87v.561c0,2.131-1.682,3.869-3.869,3.869h-1.064c-.17,0-.338-.168-.338-.336Z" fill="#0125DC"/>
    </g>
  </g>
</svg>