<?xml version="1.0" encoding="UTF-8"?>
<svg id="Layer_1" data-name="Layer 1" xmlns="http://www.w3.org/2000/svg" version="1.1" viewBox="0 0 289.31 72.28">
  <defs>
    <style>
      .cls-1 {
        fill: #6f7070;
        stroke-width: 0px;
      }
    </style>
  </defs>
  <g>
    <path class="cls-1" d="M8.71,71.74v-21.9H0v-1.89h19.38v1.89h-8.71v21.9h-1.96Z"/>
    <path class="cls-1" d="M24.96,72.28c-3.69,0-5.3-.98-6.41-2.78-.88-1.45-1.14-3.31-1.14-6.03,0-2.08.13-4.1,1.1-5.93.92-1.7,2.65-3,6.03-3s4.92,1.23,5.84,2.84c.69,1.23.79,2.62.79,3.69,0,.79-.09,2.15-.32,3.28h-11.49c0,1.2.16,2.84.76,3.94.85,1.55,2.21,2.15,4.83,2.15,1.89,0,4.04-.41,5.36-.66v1.86c-1.26.25-3.72.63-5.36.63ZM29.1,62.59c.06-.47.13-1.01.13-1.64,0-.88-.13-1.89-.54-2.62-.73-1.29-2.15-1.96-4.13-1.96-2.21,0-3.6.66-4.42,2.24-.57,1.07-.76,3-.76,3.98h9.72Z"/>
    <path class="cls-1" d="M42,72.28c-3.09,0-4.58-.79-5.68-2.65-.92-1.58-1.26-3.98-1.26-6.09,0-1.99.16-4.07.69-5.43.95-2.34,2.46-3.57,6.25-3.57,1.58,0,3.66.6,4.95.98v1.86c-1.2-.35-3.53-1.01-4.95-1.01-2.37,0-3.57.5-4.35,2.3-.47,1.07-.63,3.03-.63,4.8,0,1.93.32,3.94.95,5.08.82,1.48,2.11,1.89,4.04,1.89,1.48,0,3.57-.47,4.95-.82v1.86c-1.36.32-3.41.79-4.95.79Z"/>
    <path class="cls-1" d="M50.93,71.74v-23.79h1.93v8.24c2.21-.92,4.04-1.64,5.87-1.64,1.96,0,3.16.35,4.17,1.51.92,1.04,1.07,2.62,1.07,4.83v10.86h-1.93v-10.82c0-1.48-.09-2.81-.69-3.57-.6-.76-1.39-.98-2.62-.98-1.89,0-4.1.98-5.87,1.77v13.6h-1.93Z"/>
    <path class="cls-1" d="M72.55,71.74l-4.99-23.79h1.99l4.61,21.9,5.18-18.3h2.59l5.24,18.3,4.58-21.9h1.99l-4.95,23.79h-3.03l-5.11-17.86-5.05,17.86h-3.03Z"/>
    <path class="cls-1" d="M108.52,56.88c1.26,1.74,1.51,4.23,1.51,6.53s-.41,4.58-1.1,5.84c-1.04,1.89-2.87,3.03-6.03,3.03s-4.61-.82-5.78-2.56c-.88-1.33-1.36-3.82-1.36-6.19,0-1.93.22-4.01.82-5.36.98-2.21,2.68-3.63,6.31-3.63,2.65,0,4.39.66,5.62,2.34ZM98.49,58.74c-.57,1.17-.76,3-.76,4.73,0,1.96.32,3.91.95,5.02.88,1.55,2.21,1.96,4.23,1.96s3.38-.57,4.17-1.89c.69-1.17,1.01-3.16,1.01-5.24,0-1.89-.16-3.5-.85-4.8-.88-1.64-2.24-2.15-4.32-2.15-2.27,0-3.6.69-4.42,2.37Z"/>
    <path class="cls-1" d="M114.64,71.74v-16.66h1.93v2.08c.76-.54,1.39-.95,2.24-1.36.98-.47,2.27-.85,3.69-1.1v1.96c-1.14.22-2.08.51-3.09.95-1.01.44-1.99,1.04-2.84,1.64v12.5h-1.93Z"/>
    <path class="cls-1" d="M125.5,71.74v-23.79h1.93v14.39l7.67-7.26h2.75l-8.05,7.64,8.77,9.03h-2.68l-8.46-8.68v8.68h-1.93Z"/>
    <path class="cls-1" d="M140.58,69.63c1.74.38,3.94.82,5.65.82,1.36,0,2.46-.09,3.31-.63.85-.54,1.26-1.29,1.26-2.27,0-.66-.16-1.29-.6-1.74-.54-.54-1.45-.82-2.56-1.17l-2.9-.92c-1.58-.5-2.49-.85-3.16-1.45-.82-.73-1.2-1.86-1.2-3.16,0-1.36.38-2.59,1.55-3.47,1.14-.85,2.43-1.1,4.45-1.1,1.86,0,4.61.66,5.74.98v1.86c-1.26-.32-4.1-1.01-5.74-1.01s-2.43.16-3.09.63c-.73.54-.95,1.29-.95,2.11,0,.76.16,1.45.69,1.83.47.35,1.2.6,2.37.98l3.12.98c1.61.51,2.4.85,3.09,1.55.69.69,1.14,1.83,1.14,3,0,1.45-.54,2.84-1.77,3.69-1.2.82-2.59,1.14-4.77,1.14s-4.26-.47-5.65-.79v-1.86Z"/>
    <path class="cls-1" d="M165.86,71.74v-23.79h8.08c3.19,0,4.99.32,6.37,1.29,1.42,1.01,2.08,2.78,2.08,4.7,0,2.08-.95,3.57-2.11,4.89-.92,1.01-2.08,2.21-2.78,2.9l6.09,10h-2.34l-6-9.88h-7.45v9.88h-1.96ZM176.53,59.97c.85-.88,1.51-1.58,2.11-2.27.92-1.04,1.74-2.24,1.74-3.72s-.44-2.71-1.7-3.44c-.98-.57-2.3-.69-4.77-.69h-6.09v10.13h8.71Z"/>
    <path class="cls-1" d="M198.36,56.88c1.26,1.74,1.51,4.23,1.51,6.53s-.41,4.58-1.1,5.84c-1.04,1.89-2.87,3.03-6.03,3.03s-4.61-.82-5.77-2.56c-.88-1.33-1.36-3.82-1.36-6.19,0-1.93.22-4.01.82-5.36.98-2.21,2.68-3.63,6.31-3.63,2.65,0,4.39.66,5.62,2.34ZM188.33,58.74c-.57,1.17-.76,3-.76,4.73,0,1.96.32,3.91.95,5.02.88,1.55,2.21,1.96,4.23,1.96s3.38-.57,4.17-1.89c.69-1.17,1.01-3.16,1.01-5.24,0-1.89-.16-3.5-.85-4.8-.88-1.64-2.24-2.15-4.32-2.15-2.27,0-3.6.69-4.42,2.37Z"/>
    <path class="cls-1" d="M204.48,71.74v-16.66h1.93v1.29c2.08-1.01,3.85-1.83,5.65-1.83s2.68.32,3.5,1.01c.41.35.73.92.82,1.17,1.61-.92,3.91-2.18,6-2.18,1.96,0,3.06.38,3.94,1.48.88,1.1,1.04,2.71,1.04,4.92v10.79h-1.93v-10.76c0-1.51-.06-2.75-.6-3.57-.57-.85-1.36-1.04-2.46-1.04-1.8,0-4.04,1.26-5.49,2.08v13.29h-1.93v-11.33c0-1.45-.06-2.4-.5-3.06-.51-.76-1.26-.98-2.4-.98-1.8,0-4.01,1.14-5.65,1.99v13.38h-1.93Z"/>
    <path class="cls-1" d="M243.65,71.74v-2.81c-.6.54-1.2,1.04-1.96,1.61-1.48,1.07-2.65,1.74-4.1,1.74-2.52,0-3.79-1.04-4.61-2.62-.69-1.33-1.04-3.82-1.04-6.31s.38-4.67,1.33-6.15c1.33-2.05,3.16-2.65,5.71-2.65,2.02,0,4.13.79,6.6,1.7v15.49h-1.93ZM243.65,57.51c-1.55-.57-3.09-1.14-4.67-1.14-2.05,0-3.31.54-4.13,1.99-.66,1.17-.95,3.06-.95,4.99s.22,4.1.69,5.14c.6,1.33,1.45,1.96,3,1.96,1.04,0,2.08-.57,3.22-1.45.98-.76,2.05-1.67,2.84-2.37v-9.12Z"/>
    <path class="cls-1" d="M250.81,71.74v-16.66h1.93v1.23c2.18-.95,4.23-1.77,6.06-1.77s3.09.32,4.07,1.51c.92,1.1,1.07,2.75,1.07,4.83v10.86h-1.93v-10.86c0-1.48-.09-2.71-.66-3.5-.57-.76-1.36-1.01-2.56-1.01-1.89,0-4.32,1.1-6.06,1.89v13.48h-1.93Z"/>
    <path class="cls-1" d="M269.08,52.11v-4.17h2.05v4.17h-2.05ZM269.14,71.74v-16.66h1.93v16.66h-1.93Z"/>
    <path class="cls-1" d="M287.38,71.74v-2.81c-.6.54-1.2,1.04-1.96,1.61-1.48,1.07-2.65,1.74-4.1,1.74-2.52,0-3.79-1.04-4.61-2.62-.69-1.33-1.04-3.82-1.04-6.31s.38-4.67,1.33-6.15c1.33-2.05,3.16-2.65,5.71-2.65,2.02,0,4.13.79,6.6,1.7v15.49h-1.93ZM287.38,57.51c-1.55-.57-3.09-1.14-4.67-1.14-2.05,0-3.31.54-4.13,1.99-.66,1.17-.95,3.06-.95,4.99s.22,4.1.69,5.14c.6,1.33,1.45,1.96,3,1.96,1.04,0,2.08-.57,3.22-1.45.98-.76,2.05-1.67,2.84-2.37v-9.12Z"/>
  </g>
  <g>
    <path class="cls-1" d="M.23,34.84h14.03c4.48,0,7.19-.77,9.18-2.44,2.08-1.67,3.08-4.3,3.08-7.51,0-2.13-.59-3.94-1.4-5.11-.81-1.09-1.68-1.86-2.67-2.58.5-.81,1.18-1.9,1.81-2.99.95-1.72,1.54-3.21,1.54-5.34,0-2.76-1.22-5.16-3.26-6.56-1.81-1.22-4.07-1.58-7.56-1.58H.23v34.12ZM5.71,29.68v-9.59h8.96c2.08,0,3.35.18,4.39.81,1.36.95,1.9,2.22,1.9,3.98,0,1.59-.41,2.76-1.4,3.58-1,.86-2.44,1.22-5.2,1.22H5.71ZM5.71,14.93V5.88h8.78c1.99,0,3.39.09,4.3.63,1.04.59,1.45,1.54,1.45,2.9s-.45,2.31-1.09,3.44c-.41.68-.86,1.45-1.27,2.08H5.71Z"/>
    <polygon class="cls-1" points="35.8 34.84 35.8 8.91 43.81 28.05 48.83 28.05 56.84 8.91 56.84 34.84 62.23 34.84 62.23 .72 54.99 .72 46.39 21.31 37.75 .72 30.42 .72 30.42 34.84 35.8 34.84"/>
    <polygon class="cls-1" points="78.65 34.84 84.31 13.53 89.96 34.84 97.16 34.84 103.86 .72 98.34 .72 93.09 27.74 87.25 5.88 81.41 5.88 75.58 27.74 70.33 .72 64.72 .72 71.41 34.84 78.65 34.84"/>
    <path class="cls-1" d="M144.51,34.43v-17.87h-5.41v13.4c-1.22.14-3.57.41-5.78.41-3.84,0-6.05-.95-7.27-3.39-.99-1.98-1.31-4.92-1.31-8.89s.36-7.04,1.35-9.07c1.26-2.66,3.2-3.7,7.13-3.7,1.22,0,2.57.18,3.97.45,2.12.41,4.33.9,6.18,1.35V1.8c-1.4-.36-3.34-.81-5.42-1.22C136.3.27,134.45,0,132.69,0c-6.27,0-9.16,2.35-11.06,5.55-1.81,3.02-2.44,7.08-2.44,12.63s.68,9.2,2.21,11.87c1.85,3.2,4.56,5.5,11.1,5.5,3.93,0,8.75-.59,12-1.13"/>
    <path class="cls-1" d="M153.97,34.79v-12.41h7.99l7.31,12.41h6.36l-7.81-13.22c.86-.9,2.26-2.48,3.34-3.79,1.76-2.17,2.84-4.29,2.84-7.35s-1.08-5.73-3.02-7.35c-2.17-1.85-4.69-2.3-8.84-2.3h-13.63v34.02h5.46ZM153.97,17.15V6h7.58c2.89,0,4.33.22,5.32.9,1.17.81,1.58,1.98,1.58,3.56,0,1.81-.77,3.11-1.76,4.38-.59.72-1.35,1.63-1.98,2.3h-10.74Z"/>
    <path class="cls-1" d="M190.43,0c-6.68,0-9.79,2.17-11.91,5.78-1.76,2.98-2.3,7.54-2.3,12.09,0,5.28.81,9.7,2.57,12.54,2.07,3.34,5.01,5.14,11.64,5.14,5.78,0,8.84-1.58,11.24-5.05,2.03-2.89,2.93-7.49,2.93-12.63,0-4.87-.72-9.7-2.93-12.86-2.35-3.39-5.41-5.01-11.24-5.01M190.43,5.23c3.07,0,5.46.77,6.9,3.29,1.31,2.21,1.72,5.69,1.72,9.34s-.41,7.63-2.17,9.88c-1.58,2.03-3.74,2.57-6.45,2.57-3.07,0-5.64-.5-7.13-3.07-1.17-2.12-1.53-5.78-1.53-9.38s.32-7.22,1.49-9.34c1.49-2.71,4.11-3.29,7.17-3.29"/>
    <path class="cls-1" d="M208.08.77v20.94c0,4.83.54,8.3,2.84,10.74,2.26,2.48,5.23,3.11,9.84,3.11,4.33,0,7.36-.72,9.66-3.02,2.44-2.44,2.98-5.73,2.98-10.83V.77h-5.46v21.07c0,3.56-.23,5.69-1.72,7.08-1.26,1.13-3.2,1.4-5.46,1.4s-4.29-.27-5.5-1.44c-1.49-1.44-1.71-3.57-1.71-7.04V.77h-5.46Z"/>
    <path class="cls-1" d="M242.83,34.79v-12.18c3.56,0,6.59,0,8.48-.13,3.16-.18,5.73-.86,7.63-2.8,1.99-2.08,2.75-5.01,2.75-8.26s-.86-6-2.66-7.9c-1.89-1.94-4.33-2.75-8.08-2.75h-13.58v34.02h5.46ZM242.83,17.37V6h7.54c2.17,0,3.47.23,4.42,1.17.95.95,1.35,2.39,1.35,4.24s-.22,3.25-1.13,4.24c-.9,1.08-2.21,1.44-4.24,1.58-2.07.13-4.92.13-7.94.13"/>
  </g>
</svg>