<?xml version="1.0" encoding="UTF-8" standalone="no"?>
<svg
   xmlns:dc="http://purl.org/dc/elements/1.1/"
   xmlns:cc="http://creativecommons.org/ns#"
   xmlns:rdf="http://www.w3.org/1999/02/22-rdf-syntax-ns#"
   xmlns:svg="http://www.w3.org/2000/svg"
   xmlns="http://www.w3.org/2000/svg"
   viewBox="0 0 4249.7148 673.07813"
   height="673.07812"
   width="4249.7148"
   xml:space="preserve"
   id="svg2"
   version="1.1"><metadata
     id="metadata8"><rdf:RDF><cc:Work
         rdf:about=""><dc:format>image/svg+xml</dc:format><dc:type
           rdf:resource="http://purl.org/dc/dcmitype/StillImage" /></cc:Work></rdf:RDF></metadata><defs
     id="defs6" /><g
     transform="matrix(1.3333333,0,0,-1.3333333,-0.75989363,673.90105)"
     id="g10"><g
       transform="scale(0.1)"
       id="g12"><g
         transform="scale(1.95574)"
         id="g14"><path
           id="path16"
           style="fill:#ff7c00;fill-opacity:1;fill-rule:nonzero;stroke:none"
           d="m 8671.55,1948.33 c 245.31,0 431.36,-143.81 448.26,-406.02 l -930.31,-0.08 v 0.08 c 59.22,245.35 219.9,406.02 482.05,406.02 z m 4516.25,0 c 253.7,0 431.3,-143.81 456.6,-406.02 l -930.3,-0.08 v 0.08 c 59.3,245.35 211.5,406.02 473.7,406.02 z m -12203.838,0 c 490.518,-25.37 608.918,-228.4 608.918,-397.53 0,-245.27 -160.7,-431.3 -608.918,-439.77 z m 4989.768,-16.88 c 482.05,-25.44 600.47,-228.4 600.47,-397.53 0,-236.82 -160.68,-422.89 -600.47,-431.36 z m -2232.71,-59.26 c 338.27,0 558.16,-262.15 558.16,-583.54 0,-329.854 -219.89,-592.004 -558.16,-592.004 -346.73,0 -566.66,262.15 -566.66,592.004 0,321.39 219.93,583.54 566.66,583.54 z M 856.032,2584.32 c -288.253,0 -677.869,-20.94 -853.11791,-35.52 l 16.91931,-608.96 194.5196,8.49 V 36.9524 L 983.962,36.8106 V 519.026 C 2108.79,569.814 2370.94,1161.8 2370.94,1576.21 c 0,592.02 -490.52,964.1 -1386.978,1006.43 -39.269,1.15 -82.331,1.68 -127.93,1.68 z M 5845.7,2558.89 c -286.48,0 -669.4,-20.89 -844.55,-35.45 l 16.92,-608.95 194.52,16.96 V 36.9524 l 761.14,-0.1418 V 510.573 c 1116.34,50.774 1370.08,642.757 1370.08,1048.677 0,592.02 -482.07,955.74 -1370.08,997.94 -39.43,1.18 -82.51,1.7 -128.03,1.7 z m 4601.9,-103.1 -837.27,-0.14 887.97,-1750.538 V 36.9524 l 803.5,-0.1418 V 705.112 l 938.7,1750.678 -854.2,-0.14 -482,-1023.21 z m -6715.05,76.07 c -710.4,0 -1293.94,-515.89 -1293.94,-1251.68 0,-735.81 583.54,-1251.6782 1293.94,-1251.6782 710.41,0 1293.97,515.8682 1293.97,1251.6782 0,735.79 -592.01,1251.68 -1293.97,1251.68 z m 11670.95,25.33 c -541.3,0 -964.1,-253.66 -964.1,-769.53 0,-397.52 194.5,-592.09 575.1,-761.22 110,-42.262 253.7,-84.523 363.7,-126.828 93,-42.322 152.2,-84.525 152.2,-160.701 0,-67.653 -59.2,-126.894 -245.3,-126.894 -169.1,0 -414.4,67.653 -591.9,177.626 l -253.8,-524.337 c 245.3,-177.6256 541.3,-245.2729 845.7,-245.2729 473.6,0 981.1,203.0079 981.1,744.2639 0,405.913 -262.2,600.493 -541.3,710.423 -143.8,59.2 -304.5,118.36 -414.4,169.14 -101.5,42.32 -143.8,93.01 -143.8,160.66 0,101.49 101.5,152.25 228.4,152.25 194.5,0 346.7,-93.05 482,-236.84 l 422.9,439.82 c -177.6,245.26 -499,397.44 -896.5,397.44 z m -6740.38,-8.39 c -735.77,0 -1251.68,-532.83 -1251.68,-1268.62 0,-727.341 482.06,-1277.02423 1336.25,-1277.02423 380.57,0 710.43,92.99723 981.04,295.94323 L 9424.26,840.411 C 9229.74,705.112 9018.31,637.465 8773.05,628.998 c -312.89,0 -507.44,152.172 -575.09,397.442 h 0.09 l 1632.19,-0.08 c 16.88,118.52 25.36,228.46 25.36,346.82 0,515.95 -279.1,1175.62 -1192.48,1175.62 z m 4524.68,0 c -744.3,0 -1260.2,-532.83 -1260.2,-1268.62 0,-727.341 499,-1277.02423 1336.3,-1277.02423 346.7,0 642.7,76.11793 896.4,245.27123 l -279.1,558.191 c -177.6,-118.481 -372.1,-177.62 -592,-177.62 -304.4,0 -499,143.768 -566.6,397.442 h 0.1 l 1632.1,-0.08 c 17,118.52 25.4,228.46 25.4,338.43 -8.4,524.34 -287.5,1184.01 -1192.4,1184.01 z" /></g></g></g></svg>