<svg width="50" height="50" viewBox="0 0 50 50" fill="none" xmlns="http://www.w3.org/2000/svg">
<path d="M49.2345 24.6172C49.2345 11.0183 38.2161 0 24.6172 0C11.0183 0 0 11.0183 0 24.6172C0 36.9089 8.99802 47.0953 20.7634 48.9289V31.7308H14.5157V24.6172H20.7634V19.2014C20.7634 13.0386 24.4305 9.62618 30.067 9.62618C32.7664 9.62618 35.5846 10.1016 35.5846 10.1016V16.1625H32.4778C29.4218 16.1625 28.4711 18.0639 28.4711 19.9994V24.6172H35.296L34.2095 31.7308H28.4711V48.9289C40.2364 47.0953 49.2345 36.9089 49.2345 24.6172Z" fill="white"/>
<path d="M34.1927 31.7305L35.2962 24.617H28.4713V19.9992C28.4713 18.0468 29.422 16.1623 32.4779 16.1623H35.5848V10.1013C35.5848 10.1013 32.7666 9.62598 30.0671 9.62598C24.4476 9.62598 20.7635 13.0384 20.7635 19.2012V24.617H14.5159V31.7305H20.7635V48.9286C22.0199 49.1324 23.2932 49.2342 24.6174 49.2342C25.9416 49.2342 27.2149 49.1324 28.4713 48.9286V31.7305H34.1927Z" fill="#3939FF"/>
</svg>
