<svg width="50" height="50" viewBox="0 0 50 50" fill="none" xmlns="http://www.w3.org/2000/svg">
<path d="M24.6172 49.2345C38.2129 49.2345 49.2345 38.2129 49.2345 24.6172C49.2345 11.0215 38.2129 0 24.6172 0C11.0215 0 0 11.0215 0 24.6172C0 38.2129 11.0215 49.2345 24.6172 49.2345Z" fill="white"/>
<path d="M24.6169 11.9185C28.7594 11.9185 29.2517 11.9354 30.8816 12.0033C32.3926 12.0713 33.2075 12.3259 33.7677 12.5296C34.4978 12.8183 35.0071 13.1408 35.5504 13.6841C36.0936 14.2274 36.4332 14.7367 36.7048 15.4667C36.9255 16.01 37.1632 16.8419 37.2311 18.3529C37.299 19.9827 37.316 20.4751 37.316 24.6175C37.316 28.76 37.299 29.2524 37.2311 30.8822C37.1632 32.3932 36.9085 33.2081 36.7048 33.7684C36.4162 34.4984 36.0936 35.0077 35.5504 35.551C35.0071 36.0943 34.4978 36.4338 33.7677 36.7055C33.2244 36.9262 32.3926 37.1638 30.8816 37.2318C29.2517 37.2997 28.7594 37.3166 24.6169 37.3166C20.4744 37.3166 19.9821 37.2997 18.3523 37.2318C16.8413 37.1638 16.0263 36.9092 15.4661 36.7055C14.7361 36.4168 14.2267 36.0943 13.6835 35.551C13.1402 35.0077 12.8006 34.4984 12.529 33.7684C12.3083 33.2251 12.0706 32.3932 12.0027 30.8822C11.9178 29.2524 11.9178 28.76 11.9178 24.6175C11.9178 20.4751 11.9348 19.9827 12.0027 18.3529C12.0706 16.8419 12.3253 16.027 12.529 15.4667C12.8176 14.7367 13.1402 14.2274 13.6835 13.6841C14.2267 13.1408 14.7361 12.8013 15.4661 12.5296C16.0094 12.3089 16.8413 12.0713 18.3523 12.0033C19.9821 11.9185 20.4744 11.9185 24.6169 11.9185ZM24.6169 9.11719C20.4065 9.11719 19.8802 9.13417 18.2334 9.20207C16.5866 9.26998 15.4491 9.54162 14.4644 9.91513C13.4458 10.3226 12.5799 10.8659 11.7141 11.7147C10.8652 12.5806 10.3219 13.4464 9.93146 14.4651C9.54098 15.4498 9.28632 16.5703 9.21841 18.234C9.13352 19.8809 9.11655 20.4072 9.11655 24.6175C9.11655 28.8279 9.13352 29.3542 9.20143 31.0011C9.26934 32.6479 9.54098 33.7853 9.91448 34.77C10.305 35.7887 10.8482 36.6545 11.6971 37.5204C12.563 38.3862 13.4288 38.9125 14.4475 39.303C15.4321 39.6935 16.5526 39.9481 18.2164 40.0161C19.8632 40.084 20.3895 40.1009 24.5999 40.1009C28.8103 40.1009 29.3366 40.084 30.9834 40.0161C32.6302 39.9481 33.7677 39.6765 34.7524 39.303C35.7711 38.9125 36.6369 38.3692 37.5028 37.5204C38.3686 36.6545 38.8949 35.7887 39.2854 34.77C39.6759 33.7853 39.9305 32.6648 39.9984 31.0011C40.0663 29.3542 40.0833 28.8279 40.0833 24.6175C40.0833 20.4072 40.0663 19.8809 39.9984 18.234C39.9305 16.5872 39.6589 15.4498 39.2854 14.4651C38.8949 13.4464 38.3516 12.5806 37.5028 11.7147C36.6369 10.8489 35.7711 10.3226 34.7524 9.9321C33.7677 9.54162 32.6472 9.28696 30.9834 9.21905C29.3536 9.13416 28.8273 9.11719 24.6169 9.11719Z" fill="#3939FF"/>
<path d="M24.6168 16.6548C20.2196 16.6548 16.6544 20.22 16.6544 24.6172C16.6544 29.0143 20.2196 32.5796 24.6168 32.5796C29.0139 32.5796 32.5792 29.0143 32.5792 24.6172C32.5792 20.22 29.0139 16.6548 24.6168 16.6548ZM24.6168 29.7783C21.7646 29.7783 19.4557 27.4694 19.4557 24.6172C19.4557 21.765 21.7646 19.4561 24.6168 19.4561C27.469 19.4561 29.7779 21.765 29.7779 24.6172C29.7779 27.4694 27.469 29.7783 24.6168 29.7783Z" fill="#3939FF"/>
<path d="M32.8849 18.217C33.9163 18.217 34.7524 17.3808 34.7524 16.3494C34.7524 15.318 33.9163 14.4819 32.8849 14.4819C31.8535 14.4819 31.0174 15.318 31.0174 16.3494C31.0174 17.3808 31.8535 18.217 32.8849 18.217Z" fill="#3939FF"/>
</svg>
