<svg width="50" height="50" viewBox="0 0 50 50" fill="none" xmlns="http://www.w3.org/2000/svg">
<path d="M24.6172 49.2345C38.2129 49.2345 49.2345 38.2129 49.2345 24.6172C49.2345 11.0215 38.2129 0 24.6172 0C11.0215 0 0 11.0215 0 24.6172C0 38.2129 11.0215 49.2345 24.6172 49.2345Z" fill="white"/>
<path d="M26.5245 21.2579C26.9269 20.803 27.2593 20.3481 27.6793 19.9457C28.9565 18.7384 30.4612 18.1436 32.2283 18.1436C33.1906 18.1436 34.1529 18.2135 35.0977 18.4935C37.2322 19.1058 38.4744 20.5755 39.0693 22.6751C39.5067 24.2323 39.5942 25.8419 39.5942 27.4691C39.5942 30.8633 39.5767 34.2751 39.5942 37.6694C39.5942 37.9843 39.5067 38.0718 39.1918 38.0718C37.4422 38.0543 35.6925 38.0543 33.9429 38.0718C33.628 38.0718 33.5755 37.9843 33.5755 37.6869C33.593 34.4501 33.593 31.2133 33.5755 27.9764C33.5755 27.1716 33.523 26.3493 33.2956 25.562C32.8756 24.1098 31.8434 23.3749 30.3212 23.4449C28.2391 23.5499 27.1544 24.5822 26.8919 26.6992C26.8219 27.2066 26.8044 27.714 26.8044 28.2214C26.8044 31.3707 26.8044 34.52 26.8044 37.6694C26.8044 37.9843 26.7345 38.0718 26.402 38.0718C24.6349 38.0543 22.8678 38.0543 21.1007 38.0718C20.8207 38.0718 20.7332 38.0018 20.7332 37.7044C20.7332 31.4757 20.7332 25.247 20.7332 19.0009C20.7332 18.6859 20.8382 18.616 21.1182 18.616C22.7978 18.6334 24.4774 18.6334 26.1396 18.616C26.4545 18.616 26.5245 18.7209 26.5245 19.0009C26.507 19.7707 26.5245 20.5055 26.5245 21.2579Z" fill="#3939FF"/>
<path d="M16.9191 28.3788C16.9191 31.4581 16.9191 34.5375 16.9191 37.6343C16.9191 37.9842 16.8316 38.0892 16.4817 38.0717C14.7321 38.0542 12.9825 38.0542 11.2328 38.0717C10.9529 38.0717 10.8654 38.0017 10.8654 37.7218C10.8654 31.4756 10.8654 25.2295 10.8654 19.0008C10.8654 18.7384 10.9354 18.6509 11.1978 18.6509C12.9825 18.6684 14.7496 18.6684 16.5342 18.6509C16.8841 18.6509 16.9191 18.7734 16.9191 19.0708C16.9191 22.1676 16.9191 25.2645 16.9191 28.3788Z" fill="#3939FF"/>
<path d="M17.4088 12.4402C17.4088 14.3823 15.8341 15.957 13.9095 15.957C12.0024 15.957 10.4103 14.3823 10.4103 12.4752C10.4103 10.5507 11.9849 8.9585 13.9095 8.9585C15.8166 8.97599 17.4088 10.5332 17.4088 12.4402Z" fill="#3939FF"/>
</svg>
