<svg width="50" height="50" viewBox="0 0 50 50" fill="none" xmlns="http://www.w3.org/2000/svg">
<path d="M24.6172 49.2345C38.2129 49.2345 49.2345 38.2129 49.2345 24.6172C49.2345 11.0215 38.2129 0 24.6172 0C11.0215 0 0 11.0215 0 24.6172C0 38.2129 11.0215 49.2345 24.6172 49.2345Z" fill="white"/>
<path d="M38.4182 16.4746C38.4182 16.3366 38.4182 16.3194 38.2629 16.3194C37.9007 16.3194 37.5384 16.2849 37.1934 16.2331C35.8995 16.0433 31.7248 13.8525 31.0175 10.2643C31.0002 10.1952 30.845 9.29819 30.845 8.91867C30.845 8.74616 30.845 8.74616 30.6725 8.74616C30.638 8.74616 30.6035 8.74616 30.5517 8.74616C28.9129 8.74616 27.274 8.74616 25.6524 8.74616C25.3247 8.74616 25.3764 8.71166 25.3764 9.03943C25.3764 16.1296 25.3764 23.2198 25.3764 30.3099C25.3764 30.5687 25.3764 30.8447 25.3247 31.1035C25.0831 32.4836 24.3759 33.5531 23.1855 34.2777C22.1505 34.916 21.0292 35.0885 19.8561 34.8642C19.4766 34.7952 19.1315 34.6572 18.7865 34.502C18.752 34.4675 18.7348 34.4502 18.7003 34.4157C18.5795 34.3122 18.4588 34.2432 18.3207 34.1397C16.8027 33.0874 16.0954 31.6383 16.3024 29.8097C16.5266 27.9638 17.5789 26.7045 19.3386 26.0662C19.8561 25.8764 20.4081 25.7902 20.9602 25.8247C21.3224 25.8419 21.6847 25.8937 22.0297 25.9799C22.1505 26.0144 22.2195 25.9799 22.2195 25.8419C22.2195 25.7902 22.2195 25.7557 22.2195 25.7039C22.2195 24.4274 22.1677 21.6499 22.1677 21.6499C22.1677 21.2877 22.1677 20.9254 22.185 20.5459C22.185 20.4424 22.1332 20.4251 22.047 20.4079C21.3914 20.3216 20.7359 20.3216 20.0631 20.3561C19.1488 20.4251 18.2517 20.6149 17.3892 20.9254C16.0091 21.4257 14.8015 22.1847 13.7665 23.2025C12.8694 24.0823 12.1621 25.1001 11.6446 26.2387C11.1443 27.3255 10.8683 28.4813 10.782 29.6717C10.7475 30.1892 10.7475 30.7067 10.7993 31.2243C10.8683 31.9488 11.0063 32.6561 11.2133 33.3289C11.8344 35.3127 12.9902 36.9171 14.6118 38.2109C14.7843 38.3489 14.9395 38.4869 15.1293 38.5732C15.2156 38.6422 15.3018 38.7285 15.3708 38.7975C15.6296 38.9872 15.9228 39.1597 16.2161 39.315C18.0275 40.212 19.9423 40.5743 21.9607 40.3328C24.5829 40.005 26.7565 38.8492 28.4816 36.8481C30.1032 34.9677 30.8795 32.7596 30.8967 30.2927C30.914 26.7562 30.8967 23.237 30.8967 19.7006C30.8967 19.6143 30.845 19.4936 30.9485 19.4591C31.0175 19.4246 31.0865 19.5281 31.1555 19.5626C32.4666 20.4251 33.8812 21.0461 35.4165 21.4084C36.3136 21.6154 37.2106 21.7362 38.1249 21.7362C38.4182 21.7362 38.4527 21.7189 38.4527 21.4257C38.4699 20.2353 38.4182 16.8196 38.4182 16.4746Z" fill="#3939FF"/>
</svg>
